<svg xmlns="http://www.w3.org/2000/svg" xmlns:xlink="http://www.w3.org/1999/xlink" width="60" height="60" viewBox="0 0 60 60">
    <defs>
        <circle id="cstlnyo7ha" cx="30" cy="30" r="30"/>
        <circle id="81ehzu27le" cx="30" cy="30" r="30"/>
        <path id="mejmn24o1c" d="M5.36 3.294c.135.228 5.69 7.967 6.682 18.67.149 1.598.845 3.094 2.188 3.97 2.482 1.618 6.338 4.123 8.363 6.789 3.09 4.064 3.577 5.365 3.577 5.365l-1.788 2.601S3.018 31.492.576 12.036C-1.867-7.422 5.359 3.294 5.359 3.294"/>
        <path id="g8sna7uozd" d="M4.361 20.032s1.067-1.81 1.22-2.605c.151-.795.522-3.811-.523-4.818 0 0-1.596 2.101-3.257.86-2.165-1.616-1.357-9.075-.57-9.962C2.02 2.62 3.35-.02 6.38.31c3.03.332 4.463 9.01 2.488 10.714 0 0 .068 5.293 1.658 6.016 0 0-2.448 3.5-4.28 3.38-1.833-.118-1.884-.388-1.884-.388"/>
    </defs>
    <g fill="none" fill-rule="evenodd">
        <g>
            <mask id="ptd357aygb" fill="#fff">
                <use xlink:href="#cstlnyo7ha"/>
            </mask>
            <use fill="#F4F4F4" xlink:href="#cstlnyo7ha"/>
            <g mask="url(#ptd357aygb)">
                <g>
                    <path fill="#F0AEAD" d="M48.697 46.221l1.487.882s3.249-12.823 4.683-21.421c-1.646-.833-2.398-2.614-3.47-2.468-1.788 7.642-2.7 23.007-2.7 23.007" transform="translate(0 -16)"/>
                    <path fill="#3F819A" d="M64.567 38.335c.136.228 5.69 7.967 6.683 18.67.149 1.597.845 3.093 2.188 3.97 2.482 1.618 6.338 4.123 8.363 6.788 3.09 4.065 3.577 5.365 3.577 5.365L83.59 75.73s-21.364-9.197-23.806-28.654c-2.443-19.457 4.783-8.741 4.783-8.741" transform="translate(0 -16)"/>
                    <g transform="translate(0 -16) translate(59.208 35.04)"/>
                    <path fill="#3F819A" d="M63.917 37.522c-3.434 0-7.113-3.488-7.113-3.488s-.37 2.597-1.18 8.203c-.381 2.65-3.434 15.992-4.226 19.51-.588 2.608-3.252 12.682-3.252 18.86l4.39.65c.614-2.223 1.738-4.526 2.113-6.34.976-4.715 3.75-12 4.553-13.983.804-1.982 6.5-9.854 7.316-14.307.899-4.904-1.778-9.105-2.601-9.105" transform="translate(0 -16)"/>
                    <path fill="#674B3A" d="M34.628 40.308c-.064-.06-.151-.105-.25-.123-.097-.02-.212-.007-.305.042-.09.05-.155.126-.193.205l-.037.122-.003.124c.054-.07.1-.135.148-.194.052-.057.104-.106.166-.138.122-.069.288-.063.474-.038" transform="translate(0 -16)"/>
                    <path fill="#595959" d="M35.566 33.214h-.407c0-2.162-1.096-3.92-2.443-3.92-1.348 0-2.443 1.758-2.443 3.92h-.407c0-2.398 1.252-4.276 2.85-4.276s2.85 1.878 2.85 4.276" transform="translate(0 -16)"/>
                    <path fill="#3BA2A1" d="M39.026 49.204L24.484 49.383 27.219 32.858 36.177 32.148 39.026 49.204" transform="translate(0 -16)"/>
                    <path fill="#595959" d="M34.752 33.036h-.408c0-2.162-1.095-3.92-2.443-3.92-1.347 0-2.442 1.758-2.442 3.92h-.407c0-2.398 1.251-4.275 2.85-4.275 1.597 0 2.85 1.877 2.85 4.275" transform="translate(0 -16)"/>
                    <path fill="#ECECF1" d="M29.662 37.833L33.326 37.477 33.326 43.518 29.662 43.873 29.662 37.833" transform="translate(0 -16)"/>
                    <path fill="#E6A772" d="M7.948 77.302L8.349 62.082 25.219 59.903 24.37 77.302 7.948 77.302" transform="translate(0 -16)"/>
                    <path fill="#E9C170" d="M9.872 62.43L10.559 47.21 39.507 45.031 38.049 62.43 9.872 62.43" transform="translate(0 -16)"/>
                    <path fill="#B33656" d="M20.765 76.501L21.165 53.727 38.036 50.467 39.189 75.7 20.765 76.501" transform="translate(0 -16)"/>
                    <path fill="#453772" d="M6.746 83.711L39.99 83.711 42.394 70.894 6.587 73.805 6.746 83.711" transform="translate(0 -16)"/>
                    <path fill="#595959" d="M14.25 53.759h-.289c0-1.162-.778-2.106-1.735-2.106-.958 0-1.736.944-1.736 2.106h-.29c0-1.288.89-2.297 2.026-2.297 1.135 0 2.025 1.009 2.025 2.297" transform="translate(0 -16)"/>
                    <path fill="#70A8CF" d="M16.71 62.347L6.376 62.443 8.32 53.568 14.685 53.186 16.71 62.347" transform="translate(0 -16)"/>
                    <path fill="#595959" d="M13.672 53.663h-.29c0-1.16-.778-2.105-1.735-2.105-.957 0-1.736.944-1.736 2.105h-.29c0-1.288.89-2.296 2.026-2.296 1.135 0 2.025 1.008 2.025 2.296" transform="translate(0 -16)"/>
                    <path fill="#F0AEAE" d="M52.53 22.433s1.066-1.81 1.218-2.606c.152-.795.523-3.81-.522-4.817 0 0-1.596 2.1-3.257.86-2.165-1.616-1.357-9.075-.57-9.962.789-.888 2.119-3.529 5.148-3.197 3.03.331 4.463 9.009 2.488 10.713 0 0 .068 5.293 1.658 6.016 0 0-2.448 3.5-4.28 3.381-1.833-.119-1.884-.388-1.884-.388" transform="translate(0 -16)"/>
                    <g transform="translate(0 -16) translate(48.168 2.4)"/>
                    <path fill="#633F57" d="M60.61 18.29c-3.2-1.595-5.717 1.863-6.429 2.353-.712.49-.326-1.546-.326-1.546l-1.273 1.415c-3.097 6.292-1.674 5.668-1.586 9.245.125 5.138 3.332 11.946 4.594 12.543l4.019-1.962c2.905-1.26 4.884-2.199 4.404-4.127-.308-1.236-1.901-3.997-1.086-7.576.586-2.573.884-8.75-2.316-10.345" transform="translate(0 -16)"/>
                    <path fill="#3F819A" d="M4.227 84.746h38.251l5.725-30.19-47.615 4.71 3.64 25.48zm38.678.516H3.78L0 58.805l48.839-4.83-5.934 31.287z" transform="translate(0 -16)"/>
                    <path fill="#3F819A" d="M8.296 85.003L5.973 58.418 6.487 58.373 8.81 84.958 8.296 85.003M14.489 84.985L13.973 57.368 14.489 57.359 15.006 84.975 14.489 84.985M22.49 84.99L21.975 84.971 23.007 56.837 23.523 56.856 22.49 84.99M29.458 85.01L28.945 84.95 32.3 55.785 32.813 55.844 29.458 85.01M37.2 85.022L36.69 84.938 41.594 54.998 42.103 55.082 37.2 85.022" transform="translate(0 -16)"/>
                    <path fill="#3F819A" d="M1.088 64.59L1.048 64.075 47.249 60.461 47.289 60.976 1.088 64.59M2.111 71.817L2.09 71.301 45.709 69.494 45.731 70.01 2.111 71.817" transform="translate(0 -16)"/>
                    <path fill="#633F57" d="M60.015 19.15c-.51-.182-.976-.813-1.3-.65-1.518.49-3.035 3.144-4.415 6.616 1.081.051 2.682.347 4.147 1.466 1.472-4.048 2.32-7.163 1.568-7.432" transform="translate(0 -16)"/>
                    <path fill="#F0AEAD" d="M48.634 45.65l1.3 1.14s5.535-12.016 8.513-20.208c-1.465-1.119-3.066-1.415-4.147-1.466-3.204 8.063-5.666 20.535-5.666 20.535" transform="translate(0 -16)"/>
                    <path fill="#3F819A" d="M48.146 54.593L49.284 48.578 49.934 48.578 48.839 54.593 48.146 54.998M47.289 54.129L47.333 47.114 48.146 47.44 47.718 54.129 47.289 54.129" transform="translate(0 -16)"/>
                    <path fill="#3F819A" d="M46.845 46.79l.651-1.79 3.74 2.603s1.462 1.788 0 1.788c-1.464 0-4.39-2.602-4.39-2.602" transform="translate(0 -16)"/>
                    <path fill="#F0AEAD" d="M49.381 45.215s-2.905-.4-2.64 1.237c.267 1.638 2.056 2.614 2.218 1.475.162-1.138-.477-1.649.25-1.475.725.175.172-1.237.172-1.237" transform="translate(0 -16)"/>
                    <path fill="#F0AEAD" d="M50.357 45.865s-2.906-.4-2.64 1.238c.266 1.637 2.055 2.613 2.217 1.475.163-1.138-.476-1.65.25-1.475.726.174.173-1.238.173-1.238" transform="translate(0 -16)"/>
                </g>
            </g>
            <circle cx="30" cy="30" r="29.5" stroke="#00488A"/>
        </g>
    </g>
</svg>
