<svg xmlns="http://www.w3.org/2000/svg" xmlns:xlink="http://www.w3.org/1999/xlink" width="60" height="60" viewBox="0 0 60 60">
    <defs>
        <circle id="kzuupbw2ma" cx="30" cy="30" r="30"/>
        <circle id="z5z2u4g74c" cx="30" cy="30" r="30"/>
    </defs>
    <g fill="none" fill-rule="evenodd">
        <g>
            <mask id="sz7e8t7a7b" fill="#fff">
                <use xlink:href="#kzuupbw2ma"/>
            </mask>
            <use fill="#F4F4F4" xlink:href="#kzuupbw2ma"/>
            <g mask="url(#sz7e8t7a7b)">
                <g>
                    <path fill="#DBDFF0" d="M5.006 57.454c.17-.48 4.297-7.098 5.284-9.205.987-2.109 1.855-4.045 2.318-4.868l.149-.277c.322-.615 1.024-1.988 1.733-3.265l.148-.266.125-.508c.497-.884.21-1.473.305-2.218.03-.224.094-.462.224-.725l.014-.03c.603-1.194 1.08-2.244 1.23-2.85.495-2.015 2.87-10.954 2.87-10.954s-3.835 1.351-4.433 2.725c-.906 2.084-1.971 5.223-2.263 6.193-.29.972-2.998 9.014-3.557 10.647-.559 1.634-1.13 3.005-1.751 4.05C6.78 46.95 2.29 56.419 1.975 57.278c0 0 2.862.655 3.031.177" transform="translate(7.77 10.803)"/>
                    <path fill="#2D3133" d="M16.26 9.52S14.76-.177 22.79.001c8.03.18 7.923 4.973 7.78 9.732-.143 4.758-3.22 4.4.25 11.02 3.471 6.618-3.005 6.618-3.005 6.618l-5.025-6.905-6.53-10.948" transform="translate(7.77 10.803)"/>
                    <path fill="#EEA886" d="M21.913.932s-5.44.86-5.654 8.587c-.214 7.728 1.468 9.374 6.226 7.764 4.757-1.61 6.26-9.696 6.367-10.948.108-1.252.394-6.333-6.94-5.403" transform="translate(7.77 10.803)"/>
                    <path fill="#E55353" d="M31.462 27.811c.02 2.662-3.038 9.022-3.51 10.986-.47 1.964-1.216 2.593-.588 5.107.629 2.513 2.576 11.018 2.498 11.765-.079.746-11.896 4.498-20.16 2.987 0 0 3.217-12.005 3.452-13.38.237-1.374-.285-6.528-.403-7.981-.12-1.455-1.59-4.582-1.54-6.038.05-1.486.78-2.767 1.799-4.351.316-.492.648-.992.98-1.479 1.08-1.585 2.159-3.025 2.69-3.52.393-.369.762-.651 1.082-.865l.002-.001c.667-.444 1.115-.588 1.115-.588l4.674-.746s2.914 1.054 4.59 1.446c0 0 3.27.477 3.32 6.658" transform="translate(7.77 10.803)"/>
                    <path fill="#E55353" d="M17.764 21.04l-5.21 8.21c.007-.02.173-.617.456-2.344.055-.328.112-.698.174-1.11.018-.122.044-.244.078-.365 1.07-2.466 4.38-4.327 4.5-4.389l.002-.001" transform="translate(7.77 10.803)"/>
                    <path fill="#EEA886" d="M25.544 13.802c-.472.89-.969 6.415-.969 6.415s-6.651 2.515-5.97 1.092c.307-.645.398-1.482.405-2.204.006-.57-.042-1.067-.074-1.343-.018-.145-.03-.228-.03-.228s7.109-4.623 6.638-3.732" transform="translate(7.77 10.803)"/>
                    <path fill="#2D3133" d="M19.694 6.478s2.791 4.544 5.33 6.332c2.54 1.79 1.252 3.22 1.252 3.22s6.63-13.953.328-14.918C20.303.146 16.439.074 16.259 9.519c0 0 2.862-3.113 3.435-3.041" transform="translate(7.77 10.803)"/>
                    <path fill="#A77860" d="M22.729 17.193c-1.02 1.506-3.719 1.912-3.719 1.912.006-.57-.042-1.067-.074-1.343 1.733.334 3.793-.569 3.793-.569" transform="translate(7.77 10.803)"/>
                    <path fill="#DBDFF0" d="M13.273 25.402s-.144.3-.263 1.504l.98-1.479s1.75-2.509 2.35-3.161c.598-.652 1.422-1.224 1.422-1.224s-3.443 1.654-4.489 4.36" transform="translate(7.77 10.803)"/>
                    <path fill="#EEA886" d="M28.018 41.42s-1.966.692-3.793 1.079c-1.825.386.062 2.574.062 2.574s3.163-.292 4.684-.44c.737-.072-.953-3.212-.953-3.212" transform="translate(7.77 10.803)"/>
                    <path fill="#E55353" d="M26.509 29.144s4.268-1.674 5.533-1.772c0 0-.86-6.856-5.053-6.129-4.193.727-.48 7.901-.48 7.901" transform="translate(7.77 10.803)"/>
                    <path fill="#EEA886" d="M18.879 20.453s-3.135 4.819-2.074 5.24c1.062.422 6.804-.561 9.246-5.139 0 0-3.65-1.872-7.172-.1" transform="translate(7.77 10.803)"/>
                    <path fill="#DBDFF0" d="M24.592 20.023s-3.322 5.515-3.76 16.002c-.437 10.486 3.286 43.981 3.053 48.066l10.045-4.34s-3.787-27.39-5.043-32.613c-1.257-5.223 2.712-12.093 3.155-19.766 0 0-.28-5.265-3.334-6.129-3.052-.864-4.116-1.22-4.116-1.22" transform="translate(7.77 10.803)"/>
                    <path fill="#EEA886" d="M31.304 25.566s-.75-5.065-4.462-4.23c-3.566.802-.224 7.443.038 8.228.262.787 2.902 7.209 3.132 8.05.723 2.662.046 2.723-1.045 3.352-3.216 1.852-9.83 1.73-10.592 2.24-.763.508-.717 2.093.564 2.149 1.667.071 11.194-.826 12.523-.956 1.288-.126 3.854-.234 3.18-4.815-.453-3.084-3.338-14.018-3.338-14.018" transform="translate(7.77 10.803)"/>
                    <path fill="#DBDFF0" d="M18.879 20.453s-3.534 5.865-3.719 12.813c-.184 6.947-6.654 36.55-5.973 51.712L7.682 83.52c-.488-.472-.745-1.131-.705-1.807.26-4.357 1.41-20.99 4.254-30.102 3.29-10.547.525-17.539-.028-19.422-.555-1.881 1.213-4.387 1.807-5.283.594-.896 2.012-5.017 5.869-6.453" transform="translate(7.77 10.803)"/>
                    <path fill="#616161" d="M26.576 32.989L29.554 51.719 17.531 53.63 14.085 34.974 26.576 32.989" transform="translate(7.77 10.803)"/>
                    <path fill="#E0CEC7" d="M26.044 34.148L28.687 50.783 18.011 52.479 14.95 35.91 26.044 34.148" transform="translate(7.77 10.803)"/>
                    <path fill="#616161" d="M22.806 35.086L22.62 33.918 18.303 34.604 18.32 35.798 22.806 35.086" transform="translate(7.77 10.803)"/>
                    <path fill="#EEA886" d="M24.225 42.499s-1.985.332-2.171.302c-.185-.03-.969-1.316-1.879-1.547-.91-.23-2.047-.409-2.327-.582-.28-.175-.357.717.517 1.08.874.365 1.092.853-.545 1.18-.904.183-4.286-.195-4.006.376.165.336 3.425.575 3.425.575s-3.518-.015-3.637.198c-.236.418 3.293.567 3.44.553 0 0-3.024.173-3.05.445-.033.336 3.029.193 3 .248 0 0-2.401.166-2.378.37.031.27 2.147.302 2.557.254.409-.047 4.553-.52 5.247-.658.7-.14 1.869-.22 1.869-.22l-.062-2.574" transform="translate(7.77 10.803)"/>
                    <path fill="#DBDFF0" d="M31.88 26.115s3.41 12.906 3.128 16.084c-.284 3.178-12.565 3.77-12.565 3.77v-3.343s6.429-1.428 7.634-2.903c.629-.768-3.568-10.579-3.568-10.579s-3.755-6.139-.196-7.702c3.559-1.563 5.09 2.807 5.568 4.673" transform="translate(7.77 10.803)"/>
                </g>
            </g>
            <circle cx="30" cy="30" r="29.5" stroke="#00488A"/>
        </g>
    </g>
</svg>
