<svg xmlns="http://www.w3.org/2000/svg" xmlns:xlink="http://www.w3.org/1999/xlink" width="60" height="60" viewBox="0 0 60 60">
    <defs>
        <circle id="7kfm0zomsa" cx="30" cy="30" r="30"/>
        <circle id="wvliythezc" cx="30" cy="30" r="30"/>
    </defs>
    <g fill="none" fill-rule="evenodd">
        <g>
            <mask id="jmbarfelib" fill="#fff">
                <use xlink:href="#7kfm0zomsa"/>
            </mask>
            <use fill="#F4F4F4" xlink:href="#7kfm0zomsa"/>
            <g mask="url(#jmbarfelib)">
                <g>
                    <path fill="#DBD8E3" d="M64.616 43.532c1.065 2.913-8.715 10.213-7.5 10.434 1.213.224 1.163 2.533 1.163 2.533s9.213-8.023 9.023-10.387c-.105-1.313-7.317-20.393-8.417-21.181-.753-.54-5.47-2.43-7.917-3.36-1.13-.43-1.993-.73-2.17-.742-.56-.034-7.46.628-7.46.628s-.988.338-2 .802c-1.728.792-4.417 2.031-6.348 2.95-.625.296-1.405.698-2.052 1.04.078 2.347.217 4.86.416 7.548 0 0 .36 5.873.393 11.8.31 1.343.256 4.463.256 4.463.084 2.96-.246 5.997-.33 7.693-.136 2.67-.503 6.471-.503 6.471l3.354 1.37 14.7-.138 4.604-1.232s-.274-11.82-.206-15.256c.065-3.311.76-11.91.897-12.407 0 0 4.929-7.159 10.097 6.971" transform="translate(-13 7)"/>
                    <path fill="#323657" d="M30.877 26.22c.077 2.383.093 4.928.296 7.666 0 0 .19 6.687.576 13.028.13.91.197 1.837.123 2.788-.096 1.24-.232 2.594-.393 4.007l-.005.054-.12 1.013-.002.016c-.859 7.065-2.312 15.172-3.071 17.624-.16.513.392.985.786 1.35l2.763 1.742s1.137-10.483 1.514-14.04c.366-3.435 1.515-8.039 2.018-12.524v-.002c.636-5.691 1.515-11.268 1.987-14.58 1.234-8.625 2.876-12.485 2.876-12.485-.785.235-9.348 4.342-9.348 4.342M63.655 42.777c1.197 2.624-7.591 10.647-7.487 10.92.598 1.579 2.885 4.467 2.885 4.467S72.66 43.547 72.48 41.746c-.13-1.31-11.54-15.878-12.64-16.666-.636-.456-5.35-2.128-7.66-3.04-.425-.166-1.802-.685-2.18-.83-.49.548-3.938 4.255-5.132 18.354-.202 2.376.434 7.407.858 11.514.455 4.382.955 7.801 1.322 11.465.725 7.22 1.231 12.965 1.231 12.965l7.185-3.2c1.162-.582 3.174-2.098 2.737-3.323-1.662-4.652-4.154-13.47-4.156-17.551 0 0 1.898-13.638 2.533-15.834 0 0 5.736 4.241 7.076 7.177" transform="translate(-13 7)"/>
                    <path fill="#EEA987" d="M48.16 21.563s.05-2.369.962-7.16c.243-1.283-7.449 3.374-7.449 3.374s.025.45.04 1.057c.009.32.014.684.012 1.048-.002.13-.003.257-.006.384-.007.34-.023.663-.052.94-.03.285-.196.786-.256.924-.317.731 4.159 1.288 6.75-.567" transform="translate(-13 7)"/>
                    <path fill="#8489BE" d="M42.426 25.827s-4.835 18.618-3.839 33.11l1.627 2.866 1.522-3.003s.418-25.92 1.745-33.018l-1.055.045" transform="translate(-13 7)"/>
                    <path fill="#323657" d="M8.442 35.67s11.686 12.697 14.446 12.018c1.273-.313 3.205-2.515 4.8-4.583.527-.681 1.043-1.396 1.533-2.104l.002-.003c1.958-2.827 3.492-5.536 3.492-5.536s5.787-6.782 1.144-9.804c0 0-1.958-.198-3.071.623-1.028.758-3.528 5.532-3.934 6.417-.406.884-3.565 7.124-3.86 7.308-.294.185-3.395-1.676-5.052-2.793-2.68-1.804-6.045-4.945-6.045-4.945l-3.455 3.401" transform="translate(-13 7)"/>
                    <path fill="#EEA886" d="M37.623 5.985s-1.69 3.133-.851 3.62c.69.403-.811 3.477-1.008 3.98-.196.502 1.254.866 1.561 1.19.308.324 1.222 4.301 2.416 4.421 1.194.12 6.575-1.75 8.041-3.274 1.464-1.524 2.667-8.406 1.69-11.308-.98-2.903-8.867-4.1-11.85 1.371" transform="translate(-13 7)"/>
                    <path fill="#232729" d="M37.286 6.665S35.561 3.28 38.694.77c3.135-2.51 8.912 1.895 9.562 2.063.65.169 4.345.423 2.48 6.909-1.601 5.57-1.824 5.804-1.824 5.804s-1.196-3.227-1.874-3.719c-1.059-.767-3.378-.582-3.378-.582s1.106-2.936-.623-3.351c-1.726-.415-4.003-1.88-5.75-1.23" transform="translate(-13 7)"/>
                    <path fill="#EEA886" d="M45.5 9.564c.152-.402.646-2.13 2.13-1.116 1.484 1.016-.926 4.277-1.183 4.319-.26.042-2.228.184-.947-3.203" transform="translate(-13 7)"/>
                    <path fill="#A77860" d="M41.725 19.882c-.002.13-.003.257-.006.384 4.4-1.476 5.252-3.7 5.252-3.7-1.372.971-5.257 2.268-5.257 2.268.008.32.013.684.011 1.048" transform="translate(-13 7)"/>
                    <path fill="#323657" d="M56.168 53.696s.335 1.96 2.885 4.468c0 0 5.845-6.449 6.887-7.656l-4.573-2.654-5.2 5.842" transform="translate(-13 7)"/>
                    <path fill="#C4C1CC" d="M48.276 20.013L43.288 23.496 44.355 25.806 50.001 21.211 48.276 20.013M41.714 20.468s.453 1.97 1.574 3.028l-1.673 2.286-.875-4.107.974-1.207" transform="translate(-13 7)"/>
                    <path fill="#8489BE" d="M43.288 23.496l1.054 2.286s-1.735.72-2.628-.145l1.574-2.141" transform="translate(-13 7)"/>
                    <path fill="#EEA987" d="M44.691 22.517l-1.403.979s-.673-.678-.754-.98c-.082-.302 2.157 0 2.157 0" transform="translate(-13 7)"/>
                </g>
            </g>
            <circle cx="30" cy="30" r="29.5" stroke="#00488A"/>
        </g>
    </g>
</svg>
