<svg xmlns="http://www.w3.org/2000/svg" xmlns:xlink="http://www.w3.org/1999/xlink" width="127" height="60" viewBox="0 0 127 60">
    <defs>
        <rect id="knylnifesa" width="127" height="60" x="0" y="0" rx="2"/>
    </defs>
    <g fill="none" fill-rule="evenodd">
        <g>
            <mask id="hklk3h9x3b" fill="#fff">
                <use xlink:href="#knylnifesa"/>
            </mask>
            <use fill="#00488A" fill-opacity=".1" xlink:href="#knylnifesa"/>
            <g mask="url(#hklk3h9x3b)">
                <g>
                    <g fill-rule="nonzero">
                        <path fill="#3F3938" d="M0.222 12.187L11.746 0.454 26.971 15.955 15.447 27.688z" transform="translate(20 7) translate(76 2)"/>
                        <path fill="#F5F5F5" d="M2.023 11.874L11.434 2.292 24.671 15.771 15.261 25.352z" transform="translate(20 7) translate(76 2)"/>
                        <path fill="#ADADAD" d="M7.013 4.366l-.688.7-.09-.091-.239-.244c-.422-.426-1.102-.426-1.525 0l-.09.092c-.418.43-.418 1.123 0 1.553l.24.243.09.092-.689.7c-.473.477-.512 1.243-.089 1.766l.06-.06.06.06-.06.061.03.03.09.092.06-.06.178.181-.06.061.39.396c.06.062.18.062.269 0L9.525 5.28c.06-.061.06-.183 0-.274l-.389-.396-.06.06-.179-.182.06-.06-.09-.093-.03-.03-.06.061-.06-.061.06-.06c-.538-.396-1.285-.366-1.764.121zm-1.615 1.4c-.149.153-.358.153-.508 0-.15-.151-.15-.365 0-.517.15-.152.359-.152.509 0 .149.152.149.366 0 .518h-.001z" transform="translate(20 7) translate(76 2)"/>
                        <path fill="#000" d="M4.185 9.294L8.879 4.515 9.232 4.875 4.538 9.654z" opacity=".21" transform="translate(20 7) translate(76 2)"/>
                        <path fill="#000" d="M4.008 9.118L8.702 4.339 9.056 4.699 4.362 9.479z" opacity=".21" transform="translate(20 7) translate(76 2)"/>
                        <path fill="#C8C8C8" d="M7.622.358L.415 7.696c-.03.03-.03.092 0 .122l.03.03c.03.031.09.031.12 0L7.801.542c.03-.03.03-.092 0-.122l-.03-.03c-.06-.062-.12-.062-.149-.031zm.658.67L1.073 8.366c-.03.03-.03.092 0 .122l.03.03c.03.03.09.03.12 0L8.43 1.18c.03-.03.03-.092 0-.122l-.03-.03c-.03-.061-.09-.061-.12 0zM5.23 5.413L1.671 9.005c-.03.03-.03.092 0 .122l.03.03c.03.031.09.031.12 0l3.558-3.623c.03-.03.03-.091 0-.122l-.03-.03c-.03 0-.09 0-.12.03h.001zm4.964-2.436l-7.207 7.337c-.03.03-.03.092 0 .122l.03.03c.03.03.09.03.12 0l7.207-7.338c.03-.03.03-.091 0-.122l-.03-.03c-.03-.06-.09-.06-.12 0zm.628.64l-7.207 7.337c-.03.03-.03.092 0 .122l.03.03c.03.03.09.03.12 0l7.207-7.338c.03-.03.03-.091 0-.122l-.03-.03c-.035-.031-.086-.031-.12 0zM7.772 8l-3.559 3.624c-.03.03-.03.091 0 .122l.03.03c.03.03.09.03.12 0L7.92 8.153c.03-.031.03-.092 0-.122L7.891 8c-.03-.031-.06-.031-.12 0zm4.963-2.436L5.53 12.902c-.03.03-.03.092 0 .123l.03.03c.03.03.09.03.12 0l7.206-7.338c.03-.03.03-.092 0-.122l-.03-.03c-.034-.031-.085-.031-.12 0zm.629.64l-7.208 7.368c-.03.03-.03.092 0 .123l.03.03c.03.03.09.03.12 0l7.207-7.338c.03-.031.03-.092 0-.122l-.03-.03c-.03-.062-.09-.062-.12-.031zm-3.02 4.385l-3.56 3.623c-.03.03-.03.091 0 .122l.03.03c.03.031.09.031.12 0l3.559-3.623c.03-.03.03-.092 0-.122l-.03-.03c-.034-.031-.086-.031-.12 0zM11 13.48l-2.272 2.314c-.03.03-.03.092 0 .122l.03.03c.03.031.09.031.119 0l2.272-2.314c.03-.03.03-.091 0-.122l-.03-.03c-.034-.03-.085-.03-.119 0zm4.546-4.628l-2.273 2.314c-.03.03-.03.092 0 .122l.03.03c.03.031.09.031.12 0l2.272-2.314c.03-.03.03-.091 0-.122l-.03-.03c-.034-.03-.085-.03-.12 0z" transform="translate(20 7) translate(76 2) translate(6 6.11)"/>
                    </g>
                    <path fill="#FAB08B" fill-rule="nonzero" d="M83.964 23.216L83.66 25l-1.62-1.064.102-1.596s-.481-1.408.329-3.254c.658-1.533.43-1.064.683-1.659.43-1.158 1.215.188.303 2.253 0-.031.71.688.507 3.536z" transform="translate(20 7)"/>
                    <path fill="#E4DCEB" fill-rule="nonzero" d="M81 25.872L81.59 23s.856.51 2.41.383L83.705 26 81 25.872z" transform="translate(20 7)"/>
                    <path fill="#01569C" fill-rule="nonzero" d="M54.327 30.818c1.562 1.615 6.277 8.194 13.395 9.078 7.118.852 14.807-3.473 16.278-14.409 0 0-1.772 0-3.364-.426 0 0-2.793 5.605-5.917 6.122-5.766.975-9.76-2.894-12.103-5.422-1.862-2.01-3.484-5.544-6.637-5.757-3.154-.244-1.592 10.905-1.592 10.905" transform="translate(20 7)"/>
                    <path fill="#D7D7D7" fill-rule="nonzero" d="M38 51L49 51 48.851 20 43.262 22.438 38.655 20z" transform="translate(20 7)"/>
                    <path fill="#01569C" fill-rule="nonzero" d="M46 44.879L43.797 24 42.232 24 40 44.879 43.015 49z" transform="translate(20 7)"/>
                    <path fill="#000" fill-rule="nonzero" d="M42.612 24L44.327 24 45 23 44.296 23.818 42.643 23.818 42 23.09z" opacity=".5" transform="translate(20 7)"/>
                    <path fill="#00488A" fill-rule="nonzero" d="M44.22 21L42.78 21 42 22.759 42.69 24 44.31 24 45 22.759z" transform="translate(20 7)"/>
                    <path fill="#FFF" fill-rule="nonzero" d="M43 21.38L46.774 18s.29 1.219 1.226 1.432L45.807 24 43 21.38zM43 21.38L39.958 18S38.934 19.858 38 19.828L40.38 24 43 21.38z" transform="translate(20 7)"/>
                    <path fill="#080355" fill-rule="nonzero" d="M82.31 25.956c-.266-.114-.38-.418-.266-.646.115-.266.38-.38.646-.266.266.114.38.418.266.646-.114.266-.38.38-.646.266z" transform="translate(20 7)"/>
                    <path fill="#01569C" fill-rule="nonzero" d="M53.393 52H32.608L32 53.88s.091 52.266 1.428 64.756c0 0 2.948.819 4.832 0 0 0 2.188-34.349 3.312-58.026h2.856c1.094 23.677 3.313 58.026 3.313 58.026 1.883.819 4.831 0 4.831 0C53.91 106.176 54 53.88 54 53.88L53.392 52z" transform="translate(20 7)"/>
                    <path fill="#000" fill-rule="nonzero" d="M32 55.482s3.504 1.015 7.588.203v-2.96h7.648v2.99s5.332.55 6.764-.262V52l-7.13.58H32.03v2.902H32z" opacity=".21" transform="translate(20 7)"/>
                    <path stroke="#080355" stroke-linecap="round" stroke-width=".442" d="M41.5 51L41.5 58" opacity=".58" transform="translate(20 7)"/>
                    <path fill="#00488A" fill-rule="nonzero" d="M38 50L48 50 48 53 38 53z" transform="translate(20 7)"/>
                    <path fill="#FFCD00" fill-rule="nonzero" d="M41 50L45 50 45 53 41 53z" transform="translate(20 7)"/>
                    <path fill="#01569C" fill-rule="nonzero" d="M55.854 32.445s.341 17.485-.34 23.077c0 0-4.706 1.075-8.514 0l.062-34.231L48.177 20h1.393s5.294.123 7.43 1.014" transform="translate(20 7)"/>
                    <path fill="#000" fill-rule="nonzero" d="M47 46L51.806 33.015 48.865 28.8 53 25.138 49.389 20 48.311 27.907z" opacity=".1" transform="translate(20 7)"/>
                    <path fill="#002D56" fill-rule="nonzero" d="M47 45l4.54-12.85-2.476-3.698L53 24.755l-3.365-4.83s-1.524-.12-2.571-.925L47 45z" transform="translate(20 7)"/>
                    <path fill="#000" fill-rule="nonzero" d="M39.552 22.932L40 50 39 50 39 22z" opacity=".75" transform="translate(20 7)"/>
                    <path fill="#01569C" fill-rule="nonzero" d="M31.086 32.445s-.343 17.485.342 23.077c0 0 4.738 1.075 8.572 0l-.063-34.231L38.815 20h-1.402s-4.27.307-5.922.614" transform="translate(20 7)"/>
                    <path stroke="#080355" stroke-linecap="round" stroke-width=".442" d="M30.643 32C29.011 24.62 31 20 31 20" opacity=".5" transform="translate(20 7)"/>
                    <path fill="#000" fill-rule="nonzero" d="M39 46L34.249 33.015 37.051 28.8 33 25.138 36.502 20 37.629 27.907z" opacity=".1" transform="translate(20 7)"/>
                    <path fill="#002D56" fill-rule="nonzero" d="M39.875 45l-4.469-12.895 2.438-3.71L34 24.685l3.313-4.848s1.625.03 2.687-.837l-.124 26z" transform="translate(20 7)"/>
                    <g>
                        <path fill="#01569C" fill-rule="nonzero" d="M18 10.231V7.77h-1.954c-.18-1.036-.588-2.02-1.194-2.88l1.382-1.383-1.74-1.74-1.383 1.382c-.86-.606-1.843-1.013-2.88-1.193V0H7.769v1.954c-1.037.18-2.02.588-2.88 1.194L3.506 1.766l-1.74 1.74L3.148 4.89c-.606.86-1.013 1.844-1.193 2.88H0v2.462h1.954c.18 1.037.588 2.02 1.194 2.88l-1.382 1.383 1.74 1.74 1.383-1.382c.86.606 1.843 1.014 2.88 1.194V18h2.462v-1.954c1.037-.18 2.02-.588 2.88-1.194l1.383 1.382 1.74-1.74-1.382-1.382c.606-.86 1.013-1.844 1.193-2.88H18zm-9 3.864c-2.814 0-5.095-2.28-5.095-5.095 0-2.814 2.281-5.095 5.095-5.095 2.814 0 5.095 2.281 5.095 5.095 0 2.814-2.281 5.095-5.095 5.095z" transform="translate(20 7) translate(34)"/>
                    </g>
                    <path fill="#FFF" fill-rule="nonzero" d="M47.073 19L47 54.7s.4.24 2 .3c0 0-1.636-.511-1.49-14.063.072-8.174-.437-21.936-.437-21.936V19z" opacity=".21" transform="translate(20 7)"/>
                    <path stroke="#080355" stroke-linecap="round" stroke-width=".442" d="M55.893 34c.3-7.584-.837-13-.837-13" opacity=".5" transform="translate(20 7)"/>
                    <path fill="#DE9B79" fill-rule="nonzero" d="M2.657 24l-.263-1.178s-1.11.247-2.394-2.698C.03 20.06 2.307 16 2.102 16c.788.062 2.482 1.612 2.861 2.48.38.869-2.306 5.52-2.306 5.52z" transform="translate(20 7)"/>
                    <path fill="#FAB08B" fill-rule="nonzero" d="M1.028 20.106c-.21.208.79 3.091 2.025 2.883L4 21.562s-.473-1.248-1.788-1.456c-1.315-.239-1.184 0-1.184 0z" transform="translate(20 7)"/>
                    <path fill="#777" fill-rule="nonzero" d="M6.258 12.987l-.145-.065c-.099-.04-.14-.123-.095-.195l.434-.65c.048-.064.192-.097.288-.064l.144.065c.097.033.145.13.097.194l-.434.65c-.048.065-.192.097-.289.065z" transform="translate(20 7)"/>
                    <path stroke="#777" stroke-linecap="round" stroke-width=".804" d="M7.425 13.005s.775-.095.525.536c-.25.63-1.225 2.143-.875 2.459" transform="translate(20 7)"/>
                    <path fill="#000" fill-rule="nonzero" d="M3 19.647L5.025 16 6 16.383 4.012 20" transform="translate(20 7)"/>
                    <path fill="#000" fill-rule="nonzero" d="M4.297 18.657L3.922 19 3 18.657l.069-.459 2.629-4.928c.307-.602 1.536-.086 1.263.459l-2.664 4.928z" transform="translate(20 7)"/>
                    <path fill="#000" fill-rule="nonzero" d="M5.994 13L7 13.46 5.006 18 4 17.539z" transform="translate(20 7)"/>
                    <path fill="#351E94" fill-rule="nonzero" d="M2.381 21.32L2.381 21.68 2.619 21.44z" transform="translate(20 7)"/>
                    <path fill="#777" fill-rule="nonzero" d="M4 20.292L3.097 21 3 20.976 3.097 20" transform="translate(20 7)"/>
                    <path fill="#98ABEF" fill-rule="nonzero" d="M4.158 18L5 18.517 4.842 19 4 18.482z" transform="translate(20 7)"/>
                    <path fill="#777" fill-rule="nonzero" d="M6.158 13L7 13.517 6.842 14 6 13.482z" transform="translate(20 7)"/>
                    <path fill="#98ABEF" fill-rule="nonzero" d="M4.158 18L5 18.518 4.842 19 4 18.483z" transform="translate(20 7)"/>
                    <path fill="#777" fill-rule="nonzero" d="M6.158 14L7 14.518 6.842 15 6 14.483z" transform="translate(20 7)"/>
                    <path fill="#FAB08B" fill-rule="nonzero" d="M3.013 24.196L3.4 26l2.06-1.076-.129-1.614s2.447-3.007 1.417-4.273c-.74-.95-1.191-1.266-1.416-1.614-.676-1.108-1.61.064.225 2.31.032-.063-2.768 1.583-2.543 4.463z" transform="translate(20 7)"/>
                    <path fill="#E4DCEB" fill-rule="nonzero" d="M6 25.872L5.41 23s-.856.51-2.41.383L3.295 26 6 25.872z" transform="translate(20 7)"/>
                    <path fill="#01569C" fill-rule="nonzero" d="M32.673 30.818c-1.562 1.615-6.277 8.194-13.395 9.078C12.16 40.748 4.471 36.422 3 25.487c0 0 1.772 0 3.364-.426 0 0 2.793 5.605 5.917 6.122 5.766.975 9.76-2.894 12.103-5.422 1.862-2.01 3.484-5.544 6.637-5.757 3.154-.244 1.592 10.905 1.592 10.905" transform="translate(20 7)"/>
                    <path fill="#080355" fill-rule="nonzero" d="M3.69 25.956c.266-.114.38-.418.266-.646-.114-.266-.38-.38-.646-.266-.266.114-.38.418-.266.646.076.266.38.38.646.266z" transform="translate(20 7)"/>
                    <g stroke-linecap="round" opacity=".5">
                        <path stroke="#080355" stroke-width=".442" d="M.347 13.545C.197 5.73.765.148.765.148" transform="translate(20 7) translate(30 20)"/>
                    </g>
                    <path fill="#FAB08B" fill-rule="nonzero" d="M.303 20.944s-.816-.824.23-1.45c0 0-1.111-.994.326-1.42 0 0-.588-1.051.751-1.051 0 0-.164-1.478 1.307-.881 1.47.597 2.384 1.818 1.992 2.557-.294.568-.947-.426-2.482-1.449 0 0 2.515 1.648 2.254 2.046-.523.796-1.83-.284-3.169-.824 0 0 2.646 1.108 2.254 1.62-.392.51-3.07-.484-3.07-.484s2.547.626 2.547.91c0 .71-2.94.426-2.94.426z" transform="translate(20 7)"/>
                    <g opacity=".4">
                        <path fill="#000" fill-rule="nonzero" d="M1.758.494s1.136.21 1.944.927c.808.688.867 1.077 1.167.628 0 0-.09.688-.569.269C3.792 1.869 3.074.973 1.758.494zM1.07 1.601s2.064 1.316 2.452 1.434c.39.12.688.24.988-.089 0 0-.33.21-1.346-.329C2.117 2.049 1.07 1.601 1.07 1.601zm2.572 1.704s.09.389-.448.329c-.568-.06-2.123-.448-2.602-.837l.21.269s1.524.628 1.943.718c.389.09 1.346.149.897-.479zm-3.2 1.076s.479.06.689.09c.358.03 1.973.12 2.122-.359 0 0 .15.688-2.691.449l-.12-.18z" transform="translate(20 7) translate(0 16)"/>
                    </g>
                </g>
            </g>
        </g>
    </g>
</svg>
