<svg xmlns="http://www.w3.org/2000/svg" xmlns:xlink="http://www.w3.org/1999/xlink" width="127" height="60" viewBox="0 0 127 60">
    <defs>
        <rect id="ijr7n7irya" width="127" height="60" x="0" y="0" rx="2"/>
    </defs>
    <g fill="none" fill-rule="evenodd">
        <g>
            <mask id="6v2cdiamhb" fill="#fff">
                <use xlink:href="#ijr7n7irya"/>
            </mask>
            <use fill="#00488A" fill-opacity=".1" xlink:href="#ijr7n7irya"/>
            <g mask="url(#6v2cdiamhb)">
                <g>
                    <path fill="#FAB08B" fill-rule="nonzero" d="M39.309 21.025s1.149-.27 1.058-3.01c0 0-2.419 0-2.903-1.747-.483-1.746-.483-5.72-.453-8.16 0 0-.182-1.384 1.663-2.318 1.845-.933 6.531-1.294 7.196.362.666 1.656.635 4.576.635 4.576s.696-1.445 2.328-1.083c1.664.36.817 5.66-2.176 3.763 0 0-.756 6.443.816 7.377L43.27 24.97l-3.961-3.945zm43.813.03c.726-.571 3.236-.36 4.203-.902.968-.543 1.603-.663 1.935-.422.333.271-3.507 2.198-3.507 2.198s3.991-2.078 4.505-1.807c.544.332-.393.663-3.084 2.168 0 0 2.45-1.144 3.296-1.174 1.028-.03.393.572-.484 1.024-1.028.542-2.752 1.415-2.752 1.415s2.117-.964 2.964-.873c.574.06.363.482-.333.783-.695.33-6.259 1.535-6.259 1.535" transform="translate(20 6)"/>
                    <g fill-rule="nonzero">
                        <path fill="#3F3938" d="M0.222 12.187L11.746 0.454 26.971 15.955 15.447 27.688z" transform="translate(20 6) translate(76 3)"/>
                        <path fill="#F5F5F5" d="M2.023 11.874L11.434 2.292 24.671 15.771 15.261 25.352z" transform="translate(20 6) translate(76 3)"/>
                        <path fill="#ADADAD" d="M7.013 4.366l-.688.7-.09-.091-.239-.244c-.422-.426-1.102-.426-1.525 0l-.09.092c-.418.43-.418 1.123 0 1.553l.24.243.09.092-.689.7c-.473.477-.512 1.243-.089 1.766l.06-.06.06.06-.06.061.03.03.09.092.06-.06.178.181-.06.061.39.396c.06.062.18.062.269 0L9.525 5.28c.06-.061.06-.183 0-.274l-.389-.396-.06.06-.179-.182.06-.06-.09-.093-.03-.03-.06.061-.06-.061.06-.06c-.538-.396-1.285-.366-1.764.121zm-1.615 1.4c-.149.153-.358.153-.508 0-.15-.151-.15-.365 0-.517.15-.152.359-.152.509 0 .149.152.149.366 0 .518h-.001z" transform="translate(20 6) translate(76 3)"/>
                        <path fill="#000" d="M4.185 9.294L8.879 4.515 9.232 4.875 4.538 9.654z" opacity=".21" transform="translate(20 6) translate(76 3)"/>
                        <path fill="#000" d="M4.008 9.118L8.702 4.339 9.056 4.699 4.362 9.479z" opacity=".21" transform="translate(20 6) translate(76 3)"/>
                        <path fill="#C8C8C8" d="M7.622.358L.415 7.696c-.03.03-.03.092 0 .122l.03.03c.03.031.09.031.12 0L7.801.542c.03-.03.03-.092 0-.122l-.03-.03c-.06-.062-.12-.062-.149-.031zm.658.67L1.073 8.366c-.03.03-.03.092 0 .122l.03.03c.03.03.09.03.12 0L8.43 1.18c.03-.03.03-.092 0-.122l-.03-.03c-.03-.061-.09-.061-.12 0zM5.23 5.413L1.671 9.005c-.03.03-.03.092 0 .122l.03.03c.03.031.09.031.12 0l3.558-3.623c.03-.03.03-.091 0-.122l-.03-.03c-.03 0-.09 0-.12.03h.001zm4.964-2.436l-7.207 7.337c-.03.03-.03.092 0 .122l.03.03c.03.03.09.03.12 0l7.207-7.338c.03-.03.03-.091 0-.122l-.03-.03c-.03-.06-.09-.06-.12 0zm.628.64l-7.207 7.337c-.03.03-.03.092 0 .122l.03.03c.03.03.09.03.12 0l7.207-7.338c.03-.03.03-.091 0-.122l-.03-.03c-.035-.031-.086-.031-.12 0zM7.772 8l-3.559 3.624c-.03.03-.03.091 0 .122l.03.03c.03.03.09.03.12 0L7.92 8.153c.03-.031.03-.092 0-.122L7.891 8c-.03-.031-.06-.031-.12 0zm4.963-2.436L5.53 12.902c-.03.03-.03.092 0 .123l.03.03c.03.03.09.03.12 0l7.206-7.338c.03-.03.03-.092 0-.122l-.03-.03c-.034-.031-.085-.031-.12 0zm.629.64l-7.208 7.368c-.03.03-.03.092 0 .123l.03.03c.03.03.09.03.12 0l7.207-7.338c.03-.031.03-.092 0-.122l-.03-.03c-.03-.062-.09-.062-.12-.031zm-3.02 4.385l-3.56 3.623c-.03.03-.03.091 0 .122l.03.03c.03.031.09.031.12 0l3.559-3.623c.03-.03.03-.092 0-.122l-.03-.03c-.034-.031-.086-.031-.12 0zM11 13.48l-2.272 2.314c-.03.03-.03.092 0 .122l.03.03c.03.031.09.031.119 0l2.272-2.314c.03-.03.03-.091 0-.122l-.03-.03c-.034-.03-.085-.03-.119 0zm4.546-4.628l-2.273 2.314c-.03.03-.03.092 0 .122l.03.03c.03.031.09.031.12 0l2.272-2.314c.03-.03.03-.091 0-.122l-.03-.03c-.034-.03-.085-.03-.12 0z" transform="translate(20 6) translate(76 3) translate(6 6.11)"/>
                    </g>
                    <path fill="#FAB08B" fill-rule="nonzero" d="M83.964 24.216L83.66 26l-1.62-1.064.102-1.596s-.481-1.408.329-3.254c.658-1.533.43-1.064.683-1.659.43-1.158 1.215.188.303 2.253 0-.031.71.688.507 3.536z" transform="translate(20 6)"/>
                    <path fill="#E4DCEB" fill-rule="nonzero" d="M81 26.872L81.59 24s.856.51 2.41.383L83.705 27 81 26.872z" transform="translate(20 6)"/>
                    <path fill="#01569C" fill-rule="nonzero" d="M54.327 31.818c1.562 1.615 6.277 8.194 13.395 9.078 7.118.852 14.807-3.473 16.278-14.409 0 0-1.772 0-3.364-.426 0 0-2.793 5.605-5.917 6.122-5.766.975-9.76-2.894-12.103-5.422-1.862-2.01-3.484-5.544-6.637-5.757-3.154-.244-1.592 10.905-1.592 10.905" transform="translate(20 6)"/>
                    <path fill="#D7D7D7" fill-rule="nonzero" d="M38 52L49 52 48.851 21 43.262 23.438 38.655 21z" transform="translate(20 6)"/>
                    <path fill="#01569C" fill-rule="nonzero" d="M46 45.879L43.797 25 42.232 25 40 45.879 43.015 50z" transform="translate(20 6)"/>
                    <path fill="#000" fill-rule="nonzero" d="M42.612 25L44.327 25 45 24 44.296 24.818 42.643 24.818 42 24.09z" opacity=".5" transform="translate(20 6)"/>
                    <path fill="#00488A" fill-rule="nonzero" d="M44.22 22L42.78 22 42 23.759 42.69 25 44.31 25 45 23.759z" transform="translate(20 6)"/>
                    <path fill="#FFF" fill-rule="nonzero" d="M43 22.38L46.774 19s.29 1.219 1.226 1.432L45.807 25 43 22.38zM43 22.38L39.958 19S38.934 20.858 38 20.828L40.38 25 43 22.38z" transform="translate(20 6)"/>
                    <path fill="#080355" fill-rule="nonzero" d="M82.31 26.956c-.266-.114-.38-.418-.266-.646.115-.266.38-.38.646-.266.266.114.38.418.266.646-.114.266-.38.38-.646.266z" transform="translate(20 6)"/>
                    <path fill="#01569C" fill-rule="nonzero" d="M53.393 53H32.608L32 54.88s.091 52.266 1.428 64.756c0 0 2.948.819 4.832 0 0 0 2.188-34.349 3.312-58.026h2.856c1.094 23.677 3.313 58.026 3.313 58.026 1.883.819 4.831 0 4.831 0C53.91 107.176 54 54.88 54 54.88L53.392 53z" transform="translate(20 6)"/>
                    <path fill="#000" fill-rule="nonzero" d="M32 56.482s3.504 1.015 7.588.203v-2.96h7.648v2.99s5.332.55 6.764-.262V53l-7.13.58H32.03v2.902H32z" opacity=".21" transform="translate(20 6)"/>
                    <path stroke="#080355" stroke-linecap="round" stroke-width=".442" d="M41.5 52L41.5 59" opacity=".58" transform="translate(20 6)"/>
                    <path fill="#00488A" fill-rule="nonzero" d="M38 51L48 51 48 54 38 54z" transform="translate(20 6)"/>
                    <path fill="#FFCD00" fill-rule="nonzero" d="M41 51L45 51 45 54 41 54z" transform="translate(20 6)"/>
                    <path fill="#01569C" fill-rule="nonzero" d="M55.854 33.445s.341 17.485-.34 23.077c0 0-4.706 1.075-8.514 0l.062-34.231L48.177 21h1.393s5.294.123 7.43 1.014" transform="translate(20 6)"/>
                    <path fill="#000" fill-rule="nonzero" d="M47 47L51.806 34.015 48.865 29.8 53 26.138 49.389 21 48.311 28.907z" opacity=".1" transform="translate(20 6)"/>
                    <path fill="#002D56" fill-rule="nonzero" d="M47 46l4.54-12.85-2.476-3.698L53 25.755l-3.365-4.83s-1.524-.12-2.571-.925L47 46z" transform="translate(20 6)"/>
                    <path fill="#000" fill-rule="nonzero" d="M39.552 23.932L40 51 39 51 39 23z" opacity=".75" transform="translate(20 6)"/>
                    <path fill="#01569C" fill-rule="nonzero" d="M31.086 33.445s-.343 17.485.342 23.077c0 0 4.738 1.075 8.572 0l-.063-34.231L38.815 21h-1.402s-4.27.307-5.922.614" transform="translate(20 6)"/>
                    <path stroke="#080355" stroke-linecap="round" stroke-width=".442" d="M30.643 33C29.011 25.62 31 21 31 21" opacity=".5" transform="translate(20 6)"/>
                    <path fill="#000" fill-rule="nonzero" d="M39 47L34.249 34.015 37.051 29.8 33 26.138 36.502 21 37.629 28.907z" opacity=".1" transform="translate(20 6)"/>
                    <path fill="#002D56" fill-rule="nonzero" d="M39.875 46l-4.469-12.895 2.438-3.71L34 25.685l3.313-4.848s1.625.03 2.687-.837l-.124 26z" transform="translate(20 6)"/>
                    <path fill="#FFF" fill-rule="nonzero" d="M47.073 20L47 55.7s.4.24 2 .3c0 0-1.636-.511-1.49-14.063.072-8.174-.437-21.936-.437-21.936V20z" opacity=".21" transform="translate(20 6)"/>
                    <path fill="#EE6646" fill-rule="nonzero" d="M47.516 4.329s-.092-4.745-3.877-4.3c-3.786.445-3.236 3.795-6.717 3.025-3.48-.801-3.389 3.024-2.106 3.854 1.251.83 3.267.445 4.426-.92 1.16-1.362 4.732-1.837 6.625-.206v2.194s.031 1.72.764.83v1.275s-.092.919.213.919c.306 0 .244-1.216.244-1.216s.733-.8 1.283-.86c0 0 .092-.593.64-1.363.611-.86 1.314-1.898.825-2.817-.519-.949-1.495-.742-2.32-.415z" transform="translate(20 6)"/>
                    <path stroke="#080355" stroke-linecap="round" stroke-width=".442" d="M55.893 35c.3-7.584-.837-13-.837-13" opacity=".5" transform="translate(20 6)"/>
                    <path fill="#DE9B79" fill-rule="nonzero" d="M2.657 25l-.263-1.178s-1.11.247-2.394-2.698C.03 21.06 2.307 17 2.102 17c.788.062 2.482 1.612 2.861 2.48.38.869-2.306 5.52-2.306 5.52z" transform="translate(20 6)"/>
                    <path fill="#FAB08B" fill-rule="nonzero" d="M1.028 21.106c-.21.208.79 3.091 2.025 2.883L4 22.562s-.473-1.248-1.788-1.456c-1.315-.239-1.184 0-1.184 0z" transform="translate(20 6)"/>
                    <path fill="#777" fill-rule="nonzero" d="M6.258 13.987l-.145-.065c-.099-.04-.14-.123-.095-.195l.434-.65c.048-.064.192-.097.288-.064l.144.065c.097.033.145.13.097.194l-.434.65c-.048.065-.192.097-.289.065z" transform="translate(20 6)"/>
                    <path stroke="#777" stroke-linecap="round" stroke-width=".804" d="M7.425 14.005s.775-.095.525.536c-.25.63-1.225 2.143-.875 2.459" transform="translate(20 6)"/>
                    <path fill="#000" fill-rule="nonzero" d="M3 20.647L5.025 17 6 17.383 4.012 21" transform="translate(20 6)"/>
                    <path fill="#000" fill-rule="nonzero" d="M4.297 19.657L3.922 20 3 19.657l.069-.459 2.629-4.928c.307-.602 1.536-.086 1.263.459l-2.664 4.928z" transform="translate(20 6)"/>
                    <path fill="#000" fill-rule="nonzero" d="M5.994 14L7 14.46 5.006 19 4 18.539z" transform="translate(20 6)"/>
                    <path fill="#351E94" fill-rule="nonzero" d="M2.381 22.32L2.381 22.68 2.619 22.44z" transform="translate(20 6)"/>
                    <path fill="#777" fill-rule="nonzero" d="M4 21.292L3.097 22 3 21.976 3.097 21" transform="translate(20 6)"/>
                    <path fill="#98ABEF" fill-rule="nonzero" d="M4.158 19L5 19.517 4.842 20 4 19.482z" transform="translate(20 6)"/>
                    <path fill="#777" fill-rule="nonzero" d="M6.158 14L7 14.517 6.842 15 6 14.482z" transform="translate(20 6)"/>
                    <path fill="#98ABEF" fill-rule="nonzero" d="M4.158 19L5 19.518 4.842 20 4 19.483z" transform="translate(20 6)"/>
                    <path fill="#777" fill-rule="nonzero" d="M6.158 15L7 15.518 6.842 16 6 15.483z" transform="translate(20 6)"/>
                    <path fill="#FAB08B" fill-rule="nonzero" d="M3.013 25.196L3.4 27l2.06-1.076-.129-1.614s2.447-3.007 1.417-4.273c-.74-.95-1.191-1.266-1.416-1.614-.676-1.108-1.61.064.225 2.31.032-.063-2.768 1.583-2.543 4.463z" transform="translate(20 6)"/>
                    <path fill="#E4DCEB" fill-rule="nonzero" d="M6 26.872L5.41 24s-.856.51-2.41.383L3.295 27 6 26.872z" transform="translate(20 6)"/>
                    <path fill="#01569C" fill-rule="nonzero" d="M32.673 31.818c-1.562 1.615-6.277 8.194-13.395 9.078C12.16 41.748 4.471 37.422 3 26.487c0 0 1.772 0 3.364-.426 0 0 2.793 5.605 5.917 6.122 5.766.975 9.76-2.894 12.103-5.422 1.862-2.01 3.484-5.544 6.637-5.757 3.154-.244 1.592 10.905 1.592 10.905" transform="translate(20 6)"/>
                    <path fill="#080355" fill-rule="nonzero" d="M3.69 26.956c.266-.114.38-.418.266-.646-.114-.266-.38-.38-.646-.266-.266.114-.38.418-.266.646.076.266.38.38.646.266z" transform="translate(20 6)"/>
                    <g stroke-linecap="round" opacity=".5">
                        <path stroke="#080355" stroke-width=".442" d="M.347 13.545C.197 5.73.765.148.765.148" transform="translate(20 6) translate(30 21)"/>
                    </g>
                    <path fill="#FAB08B" fill-rule="nonzero" d="M.303 21.944s-.816-.824.23-1.45c0 0-1.111-.994.326-1.42 0 0-.588-1.051.751-1.051 0 0-.164-1.478 1.307-.881 1.47.597 2.384 1.818 1.992 2.557-.294.568-.947-.426-2.482-1.449 0 0 2.515 1.648 2.254 2.046-.523.796-1.83-.284-3.169-.824 0 0 2.646 1.108 2.254 1.62-.392.51-3.07-.484-3.07-.484s2.547.626 2.547.91c0 .71-2.94.426-2.94.426z" transform="translate(20 6)"/>
                    <g opacity=".4">
                        <path fill="#000" fill-rule="nonzero" d="M1.758.494s1.136.21 1.944.927c.808.688.867 1.077 1.167.628 0 0-.09.688-.569.269C3.792 1.869 3.074.973 1.758.494zM1.07 1.601s2.064 1.316 2.452 1.434c.39.12.688.24.988-.089 0 0-.33.21-1.346-.329C2.117 2.049 1.07 1.601 1.07 1.601zm2.572 1.704s.09.389-.448.329c-.568-.06-2.123-.448-2.602-.837l.21.269s1.524.628 1.943.718c.389.09 1.346.149.897-.479zm-3.2 1.076s.479.06.689.09c.358.03 1.973.12 2.122-.359 0 0 .15.688-2.691.449l-.12-.18z" transform="translate(20 6) translate(0 17)"/>
                    </g>
                </g>
            </g>
        </g>
    </g>
</svg>
