<svg xmlns="http://www.w3.org/2000/svg" xmlns:xlink="http://www.w3.org/1999/xlink" width="60" height="60" viewBox="0 0 60 60">
    <defs>
        <circle id="kocbzk5iua" cx="30" cy="30" r="30"/>
        <circle id="9z0eq59n6c" cx="30" cy="30" r="30"/>
    </defs>
    <g fill="none" fill-rule="evenodd">
        <g>
            <mask id="f26sssum2b" fill="#fff">
                <use xlink:href="#kocbzk5iua"/>
            </mask>
            <use fill="#DBECFF" xlink:href="#kocbzk5iua"/>
            <g mask="url(#f26sssum2b)">
                <g>
                    <path fill="#0057A1" d="M11.723 54.001l-.772 1.92 10.173 10.173c.566.566 1.484.566 2.05 0 1.96-1.64 2.286-6.49.771-8.006l-8.155-8.155-4.067 4.068" transform="translate(1)"/>
                    <path fill="#3092C6" d="M23.174 66.094c-.566.566-1.484.566-2.05 0L10.951 55.92l4.068-4.068 8.155 8.155c1.68 1.681 1.68 4.405 0 6.086" transform="translate(1)"/>
                    <path fill="#0057A1" d="M16.414 53.248l-1.395-1.395-4.068 4.068 1.108 1.107c.498-1.893 2.375-3.135 4.355-3.78" transform="translate(1)"/>
                    <path fill="#E9E7E3" d="M11.227 54.759c-2.423 2.423-6.352 2.423-8.775 0l-.183-.183c-2.423-2.423-2.423-6.352 0-8.775l8.958 8.958" transform="translate(1)"/>
                    <path fill="#FFFFFE" d="M1.14 46.742c-.292.3-.425.722-.338 1.13.207.964.898 2.845 3.204 5.15 2.305 2.306 4.186 2.997 5.15 3.204.409.087.831-.046 1.13-.338C21.828 44.638 39.84 38.397 39.84 38.397L18.632 17.189S12.39 35.201 1.14 46.742" transform="translate(1)"/>
                    <path fill="#FAF8F6" d="M14.827 32.06c-.885 2.42-1.782 5.585-.557 8.074 1.612 3.276 6.272 2.447 9.014 1.511 9.566-3.266 16.555-3.248 16.555-3.248L18.632 17.189s.031 4.39-3.805 14.871" transform="translate(1)"/>
                    <path fill="#3092C6" d="M18.085 16.587c-1.407.98-1.084 3.533-.27 5.09 1.955 3.735 4.557 7.023 7.535 10 2.878 2.878 6.159 5.701 9.89 7.412 1.044.48 2.31 1.005 3.49.865 3.5-.416 1.829-4.704.854-6.552-1.767-3.35-4.3-6.325-6.967-8.991-2.437-2.438-5.118-4.72-8.1-6.47-1.41-.826-3.061-1.64-4.718-1.746-.74-.048-1.302.104-1.714.392" transform="translate(1)"/>
                    <path fill="#FFFFFE" d="M32.427 24.601c5.654 5.654 8.857 11.619 7.154 13.322-1.703 1.703-7.668-1.5-13.322-7.154-5.654-5.654-8.857-11.619-7.154-13.322 1.703-1.703 7.668 1.5 13.322 7.154" transform="translate(1)"/>
                    <path fill="#E8E6E1" d="M19.012 20.594c.925 2.682 3.566 6.494 7.247 10.175 3.681 3.681 7.493 6.322 10.175 7.247-.925-2.682-3.566-6.494-7.247-10.175-3.681-3.681-7.493-6.322-10.175-7.247" transform="translate(1)"/>
                    <path fill="#3092C6" d="M16.753 50.49c-1.495-.462-3.766-2.031-5.976-4.24C8.57 44.04 7 41.77 6.537 40.276c-.173-.561-.189-1.01-.026-1.309-1.785 2.54-3.763 5.013-5.927 7.232-.479.492-.681 1.178-.54 1.835.216 1.009.947 3.07 3.414 5.536 2.466 2.466 4.526 3.197 5.535 3.413.657.141 1.343-.061 1.835-.54 2.223-2.167 4.7-4.149 7.245-5.936-.297.17-.752.157-1.32-.018" transform="translate(1)"/>
                    <path fill="#413F85" d="M6.619 38.816L6.616 38.821 6.62 38.816 6.619 38.816M18.212 50.409L18.21 50.407 18.17 50.439 18.212 50.409" transform="translate(1)"/>
                    <path fill="#0A090B" d="M6.511 38.968l.105-.147c-.042.043-.075.093-.105.147M18.17 50.439l-.097.069c.035-.02.067-.044.097-.07" transform="translate(1)"/>
                    <path fill="#0057A1" d="M18.407 49.324c-.248.17-.494.341-.74.514l-.002.009-.013.002h-.001c-.516.146-2.993-.816-6.326-4.148-3.322-3.323-4.288-5.794-4.148-6.32l.003-.02.012-.002c.173-.246.344-.492.513-.739-.482-.092-.854-.036-1.079.188l-.006.008-.004.005-.105.147c-.163.298-.147.748.026 1.309.463 1.494 2.032 3.764 4.24 5.972 2.21 2.21 4.481 3.78 5.976 4.24.568.176 1.023.19 1.32.019l.097-.07.04-.031.008-.007c.224-.224.28-.596.189-1.076" transform="translate(1)"/>
                    <path fill="#0A090B" d="M17.665 49.847L17.666 49.838 17.651 49.849 17.665 49.847M7.177 39.381L7.192 39.359 7.18 39.361 7.177 39.381" transform="translate(1)"/>
                    <path fill="#0057A1" d="M33.92 29.005c-.133-.62-.583-1.888-2.1-3.405-1.517-1.517-2.784-1.967-3.404-2.1-.404-.086-.826.038-1.129.333-1.286 1.254-2.71 2.406-4.178 3.453.933 1.148 1.989 2.322 3.15 3.483 1.306 1.306 2.628 2.479 3.91 3.493 1.039-1.45 2.179-2.857 3.418-4.129.295-.303.42-.725.333-1.128" transform="translate(1)"/>
                    <path fill="#003E73" d="M31.575 25.83c1.44 1.44 2.267 2.948 1.847 3.369-.42.42-1.929-.406-3.37-1.847-1.44-1.44-2.266-2.948-1.846-3.369.42-.42 1.93.407 3.37 1.847" transform="translate(1)"/>
                    <path fill="#E9E7E3" d="M17.916 58.958c-.406.406-1.065.406-1.47 0l-1.012-1.011c-.406-.407-.406-1.065 0-1.471.406-.406 1.065-.406 1.47 0l1.012 1.011c.406.406.406 1.065 0 1.471" transform="translate(1)"/>
                    <path fill="#003E73" d="M16.624 56.584c-.26-.281-.702-.29-.973-.019l-.119.112c-.145.137-.225.33-.218.53.006.175.078.342.202.466l1.075 1.08c.32.32.844.305 1.144-.033l.061-.068c.205-.23.202-.578-.007-.805l-1.165-1.263" transform="translate(1)"/>
                    <path fill="#0057A1" d="M17.68 58.685c-.273.272-.716.263-.978-.02l-1.071-1.157c-.248-.267-.24-.683.018-.94.272-.272.716-.264.977.019l1.072 1.157c.247.268.24.683-.019.94" transform="translate(1)"/>
                    <path fill="#126089" d="M51.06 32.384L52.936 34.051 42.883 36.091 42.882 36.083 50.585 33.326 48.72 31.669 48.722 31.656 58.423 30.056 58.425 30.064 51.06 32.384M45.581 30.082L46.881 30.488 42.36 33.739 42.357 33.736 45.556 30.654 44.263 30.249 44.261 30.242 48.707 27.288 48.709 27.292 45.581 30.082M25.615 8.711L23.143 9.146 27.788 0 27.795.003 25.172 7.753 27.628 7.321 27.638 7.33 22.867 15.927 22.859 15.923 25.615 8.711M27.485 13.691L26.162 13.362 30.482 9.847 30.485 9.851 27.476 13.118 28.79 13.445 28.792 13.452 24.531 16.666 24.528 16.662 27.485 13.691" transform="translate(1)"/>
                </g>
            </g>
            <circle cx="30" cy="30" r="29.5" stroke="#00488A"/>
        </g>
    </g>
</svg>
