<svg xmlns="http://www.w3.org/2000/svg" xmlns:xlink="http://www.w3.org/1999/xlink" width="60" height="60" viewBox="0 0 60 60">
    <defs>
        <circle id="6oe5572t5a" cx="30" cy="30" r="30"/>
        <circle id="t47pkqn3ec" cx="30" cy="30" r="30"/>
    </defs>
    <g fill="none" fill-rule="evenodd">
        <g>
            <mask id="8e6vtr3c0b" fill="#fff">
                <use xlink:href="#6oe5572t5a"/>
            </mask>
            <use fill="#F4F4F4" xlink:href="#6oe5572t5a"/>
            <g mask="url(#8e6vtr3c0b)">
                <g>
                    <path fill="#121310" d="M14.97 45.474c0 .881.712 1.596 1.591 1.596.88 0 1.592-.715 1.592-1.596 0-.882-.712-1.596-1.592-1.596-.879 0-1.592.714-1.592 1.596M5.188 45.474c0 .881.713 1.596 1.592 1.596.88 0 1.592-.715 1.592-1.596 0-.882-.713-1.596-1.592-1.596-.88 0-1.592.714-1.592 1.596M29.002 45.474c0 .881.713 1.596 1.592 1.596.88 0 1.592-.715 1.592-1.596 0-.882-.713-1.596-1.592-1.596-.88 0-1.592.714-1.592 1.596M19.22 45.474c0 .881.713 1.596 1.592 1.596.88 0 1.593-.715 1.593-1.596 0-.882-.713-1.596-1.593-1.596-.879 0-1.592.714-1.592 1.596M7.844 41.867L30.194 41.867 30.194 38.832 7.844 38.832z" transform="translate(11 15)"/>
                    <path fill="#A4492E" d="M33.957 46.006v-4.944c0-.737-.603-1.34-1.34-1.34H5.007c-.737 0-1.34.603-1.34 1.34v4.944h30.29" transform="translate(11 15)"/>
                    <path fill="#C56231" d="M17.945 39.722h14.672c.737 0 1.34.603 1.34 1.34v4.944H19.285v-4.944c0-.737-.603-1.34-1.34-1.34" transform="translate(11 15)"/>
                    <path fill="#B1532F" d="M26.462 45.786L30.603 45.786 30.603 41.062 26.462 41.062z" transform="translate(11 15)"/>
                    <path fill="#121310" d="M32.533 43.404c0 .26.183.474.407.474.224 0 .407-.213.407-.474v-.421c0-.26-.183-.473-.407-.473-.224 0-.407.212-.407.473v.421M30.962 43.404c0 .26.184.474.408.474.224 0 .407-.213.407-.474v-.421c0-.26-.183-.473-.407-.473-.224 0-.408.212-.408.473v.421M29.392 43.404c0 .26.184.474.408.474.224 0 .407-.213.407-.474v-.421c0-.26-.183-.473-.407-.473-.224 0-.408.212-.408.473v.421M27.822 43.404c0 .26.183.474.407.474.225 0 .408-.213.408-.474v-.421c0-.26-.183-.473-.408-.473-.224 0-.407.212-.407.473v.421M26.252 43.404c0 .26.183.474.407.474.224 0 .408-.213.408-.474v-.421c0-.26-.184-.473-.408-.473-.224 0-.407.212-.407.473v.421M24.682 43.404c0 .26.183.474.407.474.224 0 .407-.213.407-.474v-.421c0-.26-.183-.473-.407-.473-.224 0-.407.212-.407.473v.421M23.112 43.404c0 .26.183.474.407.474.224 0 .407-.213.407-.474v-.421c0-.26-.183-.473-.407-.473-.224 0-.407.212-.407.473v.421M21.542 43.404c0 .26.183.474.407.474.224 0 .407-.213.407-.474v-.421c0-.26-.183-.473-.407-.473-.224 0-.407.212-.407.473v.421M19.972 43.404c0 .26.183.474.407.474.224 0 .407-.213.407-.474v-.421c0-.26-.183-.473-.407-.473-.224 0-.407.212-.407.473v.421" transform="translate(11 15)"/>
                    <path fill="#29231C" d="M36.868 5.578L36.868 34.669 1.394 34.669 1.394 0 25.989 0 25.989 5.578 36.868 5.578" transform="translate(11 15)"/>
                    <path fill="#B38B55" d="M26.462 34.669L36.868 34.669 36.868 5.578 26.462 5.578zM15.583 34.669L25.989 34.669 25.989 0 15.583 0z" transform="translate(11 15)"/>
                    <path fill="#815A31" d="M8.725 34.669L15.583 34.669 15.583 0 8.725 0zM1.394 34.669L8.252 34.669 8.252 0 1.394 0z" transform="translate(11 15)"/>
                    <path fill="#29231C" d="M25.989 28.559L26.462 28.559 26.462 28.322 25.989 28.322z" transform="translate(11 15)"/>
                    <path fill="#815A31" d="M26.462 28.559L36.868 28.559 36.868 28.322 26.462 28.322zM15.583 28.559L25.989 28.559 25.989 28.322 15.583 28.322z" transform="translate(11 15)"/>
                    <path fill="#29231C" d="M8.252 28.559L8.725 28.559 8.725 28.322 8.252 28.322z" transform="translate(11 15)"/>
                    <path fill="#4F3D2C" d="M8.725 28.559L15.556 28.559 15.556 28.322 8.725 28.322zM1.367 28.559L8.252 28.559 8.252 28.322 1.367 28.322z" transform="translate(11 15)"/>
                    <path fill="#29231C" d="M25.989 22.843L26.462 22.843 26.462 22.607 25.989 22.607z" transform="translate(11 15)"/>
                    <path fill="#815A31" d="M26.462 22.843L36.868 22.843 36.868 22.607 26.462 22.607zM15.583 22.843L25.989 22.843 25.989 22.607 15.583 22.607z" transform="translate(11 15)"/>
                    <path fill="#29231C" d="M8.252 22.843L8.725 22.843 8.725 22.607 8.252 22.607z" transform="translate(11 15)"/>
                    <path fill="#4F3D2C" d="M15.556 22.843L12.575 22.843 12.575 22.773 11.208 22.773 11.208 22.843 8.725 22.843 8.725 22.607 15.556 22.607 15.556 22.843M1.367 22.843L1.394 22.843 1.394 22.607 1.367 22.607zM8.252 22.843L5.506 22.843 5.506 22.773 4.14 22.773 4.14 22.843 1.394 22.843 1.394 22.607 8.252 22.607 8.252 22.843" transform="translate(11 15)"/>
                    <path fill="#29231C" d="M25.989 17.128L26.462 17.128 26.462 16.891 25.989 16.891z" transform="translate(11 15)"/>
                    <path fill="#815A31" d="M26.462 17.128L36.868 17.128 36.868 16.891 26.462 16.891zM15.583 17.128L25.989 17.128 25.989 16.891 15.583 16.891z" transform="translate(11 15)"/>
                    <path fill="#29231C" d="M8.252 17.128L8.725 17.128 8.725 16.891 8.252 16.891z" transform="translate(11 15)"/>
                    <path fill="#4F3D2C" d="M15.556 17.128L12.575 17.128 12.575 17.124 11.208 17.124 11.208 17.128 8.725 17.128 8.725 16.891 15.556 16.891 15.556 17.128M1.367 17.128L1.394 17.128 1.394 16.891 1.367 16.891zM8.252 17.128L5.506 17.128 5.506 17.124 4.14 17.124 4.14 17.128 1.394 17.128 1.394 16.891 8.252 16.891 8.252 17.128" transform="translate(11 15)"/>
                    <path fill="#29231C" d="M25.989 11.412L26.462 11.412 26.462 11.176 25.989 11.176z" transform="translate(11 15)"/>
                    <path fill="#815A31" d="M26.462 11.412L36.868 11.412 36.868 11.176 26.462 11.176zM15.583 11.412L25.989 11.412 25.989 11.176 15.583 11.176z" transform="translate(11 15)"/>
                    <path fill="#29231C" d="M8.252 11.412L8.725 11.412 8.725 11.176 8.252 11.176z" transform="translate(11 15)"/>
                    <path fill="#4F3D2C" d="M15.556 11.412L12.575 11.412 12.575 11.384 11.208 11.384 11.208 11.412 8.725 11.412 8.725 11.176 15.556 11.176 15.556 11.412M1.367 11.412L1.394 11.412 1.394 11.176 1.367 11.176zM8.252 11.412L5.506 11.412 5.506 11.384 4.14 11.384 4.14 11.412 1.394 11.412 1.394 11.176 8.252 11.176 8.252 11.412" transform="translate(11 15)"/>
                    <path fill="#815A31" d="M36.868 5.697L36.868 5.578 25.989 5.578 25.989 5.46 36.868 5.46 36.868 5.697" transform="translate(11 15)"/>
                    <path fill="#29231C" d="M26.462 5.697L25.989 5.697 25.989 5.578 36.868 5.578 26.462 5.578 26.462 5.697" transform="translate(11 15)"/>
                    <path fill="#815A31" d="M26.462 5.697L36.868 5.697 36.868 5.578 26.462 5.578zM15.583 5.697L25.989 5.697 25.989 5.46 15.583 5.46z" transform="translate(11 15)"/>
                    <path fill="#29231C" d="M8.252 5.697L8.725 5.697 8.725 5.46 8.252 5.46z" transform="translate(11 15)"/>
                    <path fill="#4F3D2C" d="M15.556 5.697L12.575 5.697 12.575 5.669 11.208 5.669 11.208 5.697 8.725 5.697 8.725 5.46 15.556 5.46 15.556 5.697M1.367 5.697L1.394 5.697 1.394 5.46 1.367 5.46zM8.252 5.697L5.506 5.697 5.506 5.669 4.14 5.669 4.14 5.697 1.394 5.697 1.394 5.46 8.252 5.46 8.252 5.697" transform="translate(11 15)"/>
                    <path fill="#724F2E" d="M11.208 1.359L12.575 1.359 12.575 0 11.208 0z" transform="translate(11 15)"/>
                    <path fill="#D5C8B5" d="M23.708 5.088L25.459 5.088 25.459 3.984 23.708 3.984zM23.708 10.697L25.459 10.697 25.459 9.593 23.708 9.593zM23.708 16.373L25.459 16.373 25.459 15.269 23.708 15.269zM23.708 22.192L25.459 22.192 25.459 21.088 23.708 21.088zM26.967 24.683L28.717 24.683 28.717 23.58 26.967 23.58zM27.842 10.697L29.592 10.697 29.592 9.593 27.842 9.593zM28.929 16.479L27.194 16.258 27.334 15.163 29.069 15.384 28.929 16.479M34.43 22.192L36.18 22.192 36.18 21.088 34.43 21.088zM16.403 27.847L18.153 27.847 18.153 26.744 16.403 26.744zM18.493 34.062L16.887 33.366 17.325 32.354 18.931 33.05 18.493 34.062M26.967 34.312L28.717 34.312 28.717 33.208 26.967 33.208z" transform="translate(11 15)"/>
                    <path fill="#724F2E" d="M11.208 7.027L12.575 7.027 12.575 5.697 11.208 5.697z" transform="translate(11 15)"/>
                    <path fill="#5A412C" d="M11.208 5.697L12.575 5.697 12.575 5.669 11.208 5.669z" transform="translate(11 15)"/>
                    <path fill="#724F2E" d="M11.208 12.743L12.575 12.743 12.575 11.412 11.208 11.412z" transform="translate(11 15)"/>
                    <path fill="#5A412C" d="M11.208 11.412L12.575 11.412 12.575 11.384 11.208 11.384z" transform="translate(11 15)"/>
                    <path fill="#724F2E" d="M11.208 18.483L12.575 18.483 12.575 17.128 11.208 17.128z" transform="translate(11 15)"/>
                    <path fill="#5A412C" d="M11.208 17.128L12.575 17.128 12.575 17.124 11.208 17.124z" transform="translate(11 15)"/>
                    <path fill="#724F2E" d="M11.208 24.131L12.575 24.131 12.575 22.843 11.208 22.843z" transform="translate(11 15)"/>
                    <path fill="#5A412C" d="M11.208 22.843L12.575 22.843 12.575 22.773 11.208 22.773z" transform="translate(11 15)"/>
                    <path fill="#724F2E" d="M11.208 29.946L12.575 29.946 12.575 28.587 11.208 28.587zM4.14 1.359L5.506 1.359 5.506 0 4.14 0zM4.14 7.027L5.506 7.027 5.506 5.697 4.14 5.697z" transform="translate(11 15)"/>
                    <path fill="#5A412C" d="M4.14 5.697L5.506 5.697 5.506 5.669 4.14 5.669z" transform="translate(11 15)"/>
                    <path fill="#724F2E" d="M4.14 12.743L5.506 12.743 5.506 11.412 4.14 11.412z" transform="translate(11 15)"/>
                    <path fill="#5A412C" d="M4.14 11.412L5.506 11.412 5.506 11.384 4.14 11.384z" transform="translate(11 15)"/>
                    <path fill="#724F2E" d="M4.14 18.483L5.506 18.483 5.506 17.128 4.14 17.128z" transform="translate(11 15)"/>
                    <path fill="#5A412C" d="M4.14 17.128L5.506 17.128 5.506 17.124 4.14 17.124z" transform="translate(11 15)"/>
                    <path fill="#724F2E" d="M4.14 24.131L5.506 24.131 5.506 22.843 4.14 22.843z" transform="translate(11 15)"/>
                    <path fill="#5A412C" d="M4.14 22.843L5.506 22.843 5.506 22.773 4.14 22.773z" transform="translate(11 15)"/>
                    <path fill="#724F2E" d="M4.14 29.946L5.506 29.946 5.506 28.587 4.14 28.587z" transform="translate(11 15)"/>
                    <path fill="#565449" d="M1.41 47.166L2.857 47.166 2.857 38.806 1.41 38.806z" transform="translate(11 15)"/>
                    <path fill="#3F3E37" d="M0 47.166L1.446 47.166 1.446 38.806 0 38.806z" transform="translate(11 15)"/>
                    <path fill="#565449" d="M0 38.806L38.314 38.806 38.314 37.037 0 37.037zM36.868 47.166L38.314 47.166 38.314 38.806 36.868 38.806z" transform="translate(11 15)"/>
                    <path fill="#3F3E37" d="M35.457 47.166L36.903 47.166 36.903 38.806 35.457 38.806z" transform="translate(11 15)"/>
                    <path fill="#565449" d="M16.38 47.166L17.826 47.166 17.826 38.806 16.38 38.806z" transform="translate(11 15)"/>
                    <path fill="#3F3E37" d="M14.969 47.166L16.416 47.166 16.416 38.806 14.969 38.806zM0 38.806L16.416 38.806 16.416 37.037 0 37.037z" transform="translate(11 15)"/>
                    <path fill="#C29058" d="M0.458 37.041L37.983 37.041 37.983 34.669 0.458 34.669z" transform="translate(11 15)"/>
                    <path fill="#16130F" d="M0.734 36.765L16.185 36.765 16.185 34.944 0.734 34.944z" transform="translate(11 15)"/>
                    <path fill="#8B6B49" d="M.458 37.04H16.46V34.67H.458v2.372zm.552-.551h14.9V35.22H1.01v1.269z" transform="translate(11 15)"/>
                    <path fill="#8B6B49" d="M6.843 37.041L8.972 37.041 8.972 34.669 6.843 34.669z" transform="translate(11 15)"/>
                    <path fill="#815A31" d="M30.603 47.139L38.644 47.139 38.644 40.851 30.603 40.851z" transform="translate(11 15)"/>
                    <path fill="#B38B55" d="M38.351 47.139L45.21 47.139 45.21 40.851 38.351 40.851z" transform="translate(11 15)"/>
                    <path fill="#8D6841" d="M41.36 42.21L42.727 42.21 42.727 40.851 41.36 40.851z" transform="translate(11 15)"/>
                </g>
            </g>
            <circle cx="30" cy="30" r="29.5" stroke="#00488A"/>
        </g>
    </g>
</svg>
