<svg xmlns="http://www.w3.org/2000/svg" xmlns:xlink="http://www.w3.org/1999/xlink" width="60" height="60" viewBox="0 0 60 60">
    <defs>
        <circle id="woy8uozsua" cx="30" cy="30" r="30"/>
        <circle id="m2jdcaigac" cx="30" cy="30" r="30"/>
    </defs>
    <g fill="none" fill-rule="evenodd">
        <g>
            <mask id="raa9b54xeb" fill="#fff">
                <use xlink:href="#woy8uozsua"/>
            </mask>
            <use fill="#DBECFF" xlink:href="#woy8uozsua"/>
            <g mask="url(#raa9b54xeb)">
                <g>
                    <g>
                        <path fill="#E4E4DE" d="M1.774.192C.872.192.137.927.137 1.83v81.429c0 .903.735 1.637 1.637 1.637h57.93c.903 0 1.637-.734 1.637-1.637V1.829c0-.902-.734-1.637-1.637-1.637H1.774m57.93 84.78H1.774c-.944 0-1.712-.769-1.712-1.713V1.829C.062.887.83.118 1.774.118h57.93c.944 0 1.712.769 1.712 1.713v81.429c0 .944-.768 1.712-1.712 1.712M66.664.192c-.903 0-1.638.735-1.638 1.638v81.429c0 .903.735 1.637 1.638 1.637h57.93c.902 0 1.637-.734 1.637-1.637V1.829c0-.902-.735-1.637-1.638-1.637h-57.93m57.93 84.78h-57.93c-.944 0-1.712-.769-1.712-1.713V1.829c0-.943.769-1.712 1.713-1.712h57.93c.943 0 1.712.769 1.712 1.713v81.429c0 .944-.769 1.712-1.713 1.712" transform="translate(-62 -6) translate(11.4)"/>
                    </g>
                    <path fill="#DDDED8" d="M59.147 65.893L129.242 65.893 129.242 4.828 59.147 4.828z" transform="translate(-62 -6)"/>
                    <path fill="#EAEAE5" d="M60.129 65.893L131.345 65.893 131.345 4.828 60.129 4.828z" transform="translate(-62 -6)"/>
                    <path fill="#DDDED8" d="M59.147 67.076L129.242 67.076 129.242 65.893 59.147 65.893z" transform="translate(-62 -6)"/>
                    <path fill="#EAEAE5" d="M61.25 67.076L132.466 67.076 132.466 65.893 61.25 65.893z" transform="translate(-62 -6)"/>
                    <path fill="#FAF9F6" d="M63.074 63.996L128.401 63.996 128.401 6.725 63.074 6.725z" transform="translate(-62 -6)"/>
                    <path fill="#FFFFFE" d="M83.959 63.996L96.273 6.725 104.43 6.725 92.116 63.996 83.959 63.996M74.436 63.996L86.75 6.725 94.907 6.725 82.593 63.996 74.436 63.996" transform="translate(-62 -6)"/>
                    <path fill="#EAEAE5" d="M64.611 6.88v53.516c0 .085.108.155.24.155h.319c.132 0 .24-.07.24-.155V6.88c0-.086-.108-.155-.24-.155h-.318c-.133 0-.241.07-.241.155" transform="translate(-62 -6)"/>
                    <path fill="#FFFFFE" d="M104.935 63.996L117.248 6.725 120.429 6.725 108.115 63.996 104.935 63.996" transform="translate(-62 -6)"/>
                    <path fill="#E7E7E1" d="M128.027 9.101h-8.11l.353-1.638h7.757V9.1m-11.29 0h-3.324l-.08-1.638h3.757l-.353 1.638" transform="translate(-62 -6)"/>
                    <path fill="#E9E9E4" d="M119.918 9.101L116.737 9.101 117.09 7.463 120.27 7.463 119.918 9.101" transform="translate(-62 -6)"/>
                    <path fill="#E7E7E1" d="M128.027 14.722h-9.318l.352-1.638h8.966v1.638m-12.498 0h-1.843l-.08-1.638h2.275l-.352 1.638" transform="translate(-62 -6)"/>
                    <path fill="#E9E9E4" d="M118.709 14.722L115.529 14.722 115.881 13.084 119.061 13.084 118.709 14.722" transform="translate(-62 -6)"/>
                    <path fill="#E7E7E1" d="M128.027 20.343h-10.526l.352-1.639h10.174v1.639m-13.707 0h-.36l-.08-1.639h.793l-.353 1.639" transform="translate(-62 -6)"/>
                    <path fill="#E9E9E4" d="M117.501 20.343L114.32 20.343 114.673 18.704 117.853 18.704 117.501 20.343" transform="translate(-62 -6)"/>
                    <path fill="#E7E7E1" d="M128.027 25.963L116.292 25.963 116.644 24.325 128.027 24.325 128.027 25.963" transform="translate(-62 -6)"/>
                    <path fill="#E9E9E4" d="M116.292 25.963L114.234 25.963 114.154 24.325 116.644 24.325 116.292 25.963" transform="translate(-62 -6)"/>
                    <path fill="#E7E7E1" d="M128.027 31.584L115.084 31.584 115.436 29.946 128.027 29.946 128.027 31.584" transform="translate(-62 -6)"/>
                    <path fill="#E9E9E4" d="M115.084 31.584L114.508 31.584 114.428 29.946 115.436 29.946 115.084 31.584" transform="translate(-62 -6)"/>
                    <path fill="#E7E7E1" d="M128.027 37.205h-12.685c-.15-.252-.358-.592-.608-.974l-.033-.664h13.326v1.638M128.027 11.912h-8.713l.352-1.639h8.361v1.639m-11.894 0h-2.583l-.08-1.639h3.016l-.353 1.639" transform="translate(-62 -6)"/>
                    <path fill="#E9E9E4" d="M119.314 11.912L116.133 11.912 116.486 10.273 119.666 10.273 119.314 11.912" transform="translate(-62 -6)"/>
                    <path fill="#E7E7E1" d="M128.027 17.532h-9.922l.352-1.638h9.57v1.638m-13.102 0h-1.102l-.08-1.638h1.534l-.352 1.638" transform="translate(-62 -6)"/>
                    <path fill="#E9E9E4" d="M118.105 17.532L114.925 17.532 115.277 15.894 118.457 15.894 118.105 17.532" transform="translate(-62 -6)"/>
                    <path fill="#E7E7E1" d="M128.027 23.153h-11.13l.352-1.638h10.778v1.638m-14-1.444l-.01-.194h.051l-.041.194" transform="translate(-62 -6)"/>
                    <path fill="#E9E9E4" d="M116.897 23.153L114.097 23.153 114.027 21.709 114.068 21.515 117.249 21.515 116.897 23.153" transform="translate(-62 -6)"/>
                    <path fill="#E7E7E1" d="M128.027 28.774L115.688 28.774 116.04 27.136 128.027 27.136 128.027 28.774" transform="translate(-62 -6)"/>
                    <path fill="#E9E9E4" d="M115.688 28.774L114.371 28.774 114.291 27.136 116.04 27.136 115.688 28.774" transform="translate(-62 -6)"/>
                    <path fill="#E7E7E1" d="M128.027 34.395L114.644 34.395 114.614 33.769 114.832 32.756 128.027 32.756 128.027 34.395" transform="translate(-62 -6)"/>
                    <path fill="#E9E9E4" d="M114.614 33.769L114.565 32.756 114.832 32.756 114.614 33.769" transform="translate(-62 -6)"/>
                    <path fill="#E7E7E1" d="M128.027 40.016H116.21c-.116-.227-.236-.45-.358-.671-.179-.331-.368-.652-.565-.968h12.74v1.639" transform="translate(-62 -6)"/>
                    <path fill="#3769A4" d="M116.021 74.147h-90.02c-.283 0-.517-.223-.53-.506L22.24 7.318c-.015-.303.227-.558.531-.558h90.02c.284 0 .518.223.531.506l3.23 66.324c.014.303-.228.557-.532.557" transform="translate(-62 -6)"/>
                    <path fill="#C8DAE8" d="M110.011 73.059H27.037c-.284 0-.518-.223-.531-.506L23.382 8.406c-.014-.303.228-.557.532-.557h87.843c.284 0 .517.222.531.506l1.278 26.245c-.624-.785-1.324-1.517-1.997-1.91-.48-.317-1.047-.516-1.666-.55l-.126-.006c-1.091-1.054-.876-3.242-.547-4.821l-3.31 1.846c.25 1.06.28 2.342-.584 2.941-.165.01-.321.02-.467.034-.542.05-1.075.127-1.55.211-.119.021-.237.05-.351.084-.466.13-.981.39-1.54.81-2.293 1.728-3.995 5.386-3.995 5.386l.543.298c-.504.556-1.03 1.1-1.572 1.633-.594.582-1.19 1.133-1.837 1.738l-.054.005-.066.002c-.14 0-.315-.023-.502-.07-.305-.077-.64-.202-.981-.359.02-.374.037-.746.051-1.112l2.739-.09c.159-1.472-.059-3.925-.426-6.465-.313-2.66-.85-5.69-1.422-8.777l-2.733.173-.677-13.909c-.007-.146-.136-.259-.274-.259h-.011c-.15.008-.266.135-.259.285l.678 13.918-11.197.71.102.455.002.007.158.716c.436 2.011.772 3.972 1.015 5.846l-1.825-.285c.029 5.393-.551 10.33-1.495 14.21l14.427 2.706.935 19.214c.007.146.127.26.271.26l.014-.001c.15-.007.266-.135.259-.285l-1.016-20.86c.202-1.052.362-2.313.484-3.642.097.044.196.087.297.128.37.147.782.27 1.253.324.131.015.268.023.41.023.363 0 .755-.056 1.142-.195l.202-.073.247-.203c.696-.573 1.483-1.197 2.213-1.852.639-.565 1.264-1.156 1.864-1.777.004.324.01.66.02 1.01.005.166.01.337.017.512.086 2.354.31 5.25.745 8.807h2.242l-.771 2.589 1.61.48-.02.132 1.736.378.083.025c.943 4.331 2.532 11.62 3.604 16.468l.353 1.596M47.984 62.782l.314 6.433c.007.146.127.26.271.26h.014c.15-.008.266-.136.259-.286l-.315-6.462 7.604-.772c-.039-3.39-1.782-11.26-2.815-14.21l-5.487.652-.47-9.653 1.707-.091c-.768-5.102-1.326-10.003-1.489-14.527l-.928.036-.607-12.47c-.007-.146-.133-.259-.273-.259h-.012c-.15.008-.266.135-.259.285l.607 12.465-12.683.49c-.03 4.149.32 9.752 1.156 14.76l12.238-.66.471 9.688-7.986.949c1.49 5.255 1.552 10.019 1.966 14.055l6.717-.683m4.764-34.121l-.001 14.438 14.563.879.001-14.439-14.564-.879m62.245 35.23c-.406-2.324-.818-4.613-1.177-6.584l.87.26.307 6.324m-1.05-21.566l-1.376-.3c.013-.428.03-.865.052-1.308l.23-.236c.399.596.77 1.2 1.092 1.809l.002.035m-19.18-.08l.036-.022c-.01.008-.022.015-.036.022" transform="translate(-62 -6)"/>
                    <path fill="#FFFFFE" d="M93.023 69.474c-.144 0-.264-.113-.271-.259l-2.8-57.497c-.007-.15.109-.277.259-.285.142-.006.277.109.285.26l2.8 57.496c.007.15-.11.278-.26.285h-.013M70.796 69.474c-.144 0-.264-.113-.271-.259l-2.8-57.497c-.007-.15.109-.277.26-.285.147-.006.276.109.284.26l2.8 57.496c.007.15-.11.278-.26.285h-.013" transform="translate(-62 -6)"/>
                    <path fill="#FFFFFE" d="M109.993 17.644h-83.44c-.15 0-.272-.122-.272-.272 0-.15.122-.273.272-.273h83.44c.15 0 .273.122.273.273 0 .15-.122.272-.273.272M72.31 15.014c.357-.168.719-.321 1.09-.454.353-.126.764-.307 1.143-.314.345-.006.65.2.98.27.26.055.514.034.756-.078.216-.1.436-.341.672-.38.268-.042.492.27.72.376.236.11.489.113.742.085.232-.026.572-.147.787-.009.2.129.26.408.476.537.188.113.422.122.617.026.217-.107.335-.309.514-.459.264-.22.572-.098.874-.027.279.067.549.117.836.08.316-.043.68-.243 1.002-.18.525.105.798.663 1.387.375.354-.173.044-.701-.309-.529-.15.073-.584-.31-.73-.371-.263-.111-.532-.106-.808-.05-.341.069-.637.195-.992.136-.286-.047-.56-.156-.851-.173-.26-.016-.502.042-.713.198-.118.088-.37.473-.523.442-.07-.015-.179-.244-.223-.3-.071-.09-.15-.173-.248-.233-.21-.129-.455-.151-.694-.13-.26.021-.556.128-.815.054-.26-.074-.429-.326-.686-.416-.582-.201-.862.276-1.359.422-.322.095-.652-.132-.955-.214-.325-.088-.634-.065-.959.016-.702.175-1.387.463-2.04.771-.356.168-.045.696.31.53M92.746 14.85l1.634-.465c.259-.074.519-.166.781-.223.298-.066.477.035.743.135.436.163.913.161 1.372.157.544-.005 1.089-.013 1.633-.02l6.682-.083c.394-.005.395-.617 0-.612l-6.83.085c-.537.006-1.074.018-1.61.02-.264 0-.535.003-.794-.052-.246-.051-.453-.19-.692-.255-.445-.123-.954.117-1.377.237l-1.704.487c-.379.107-.218.698.162.59" transform="translate(-62 -6)"/>
                    <path fill="#93B4D4" d="M67.31 43.978L52.747 43.099 52.748 28.66 67.311 29.539 67.31 43.978" transform="translate(-62 -6)"/>
                    <path fill="#FFFFFE" d="M67.12 43.651L52.556 42.773 52.728 28.253 67.291 29.131 67.12 43.651" transform="translate(-62 -6)"/>
                    <path fill="#93B4D4" d="M93.015 40.76l.024-.686 2.493-.128c.165-1.53.06-3.506-.204-5.741.367 2.54.585 4.993.426 6.465l-2.739.09m-12.193-7.372l-.112-.017c-.243-1.875-.58-3.836-1.015-5.847.444 2.023.83 3.99 1.127 5.864" transform="translate(-62 -6)"/>
                    <path fill="#3769A4" d="M81.445 40.67l14.087-.724c.361-3.351-.574-8.838-1.626-14.518l-14.474.919c1.207 5.314 2.077 10.29 2.013 14.323" transform="translate(-62 -6)"/>
                    <path fill="#93B4D4" d="M91.817 50.001L77.39 47.296c.944-3.88 1.524-8.818 1.495-14.211l1.825.285c.367 2.828.523 5.461.487 7.777l7.262-.238c.184.251.363.475.558.702.212.25.429.499.657.738.459.477.95.93 1.498 1.354.114.086.23.171.35.255l.294 6.043m.464-1.671l-.195-4.003c.214.128.439.25.679.36-.122 1.33-.282 2.59-.484 3.643m.684-6.458c-.15-.069-.3-.144-.45-.224-.192-.1-.383-.208-.575-.321l-.026-.53 1.102-.037c-.014.366-.031.738-.051 1.112m-1.587-.893l-.242-.157.234-.008.008.165" transform="translate(-62 -6)"/>
                    <path fill="#B0C9DF" d="M91.856 50.008l-.04-.007-.294-6.043c.18.127.367.251.563.369l.195 4.003c-.125.65-.266 1.22-.424 1.678m.083-8.681c-.188-.111-.375-.227-.562-.348l-.008-.165.544-.018.026.53" transform="translate(-62 -6)"/>
                    <path fill="#719CC6" d="M81.197 41.147c.036-2.316-.12-4.949-.487-7.776l.112.017c.419 2.64.658 5.099.623 7.282l7.534-.387-.58.544.06.082-7.263.238m9.939-.325l-.104-.07c-.26-.168-.52-.35-.775-.535l1.081-.055.032.652-.234.008m.778-.026l-.032-.663 1.158-.059-.024.686-1.102.036" transform="translate(-62 -6)"/>
                    <path fill="#83A9CE" d="M91.369 40.814L91.337 40.162 91.881 40.133 91.913 40.796 91.369 40.814" transform="translate(-62 -6)"/>
                    <path fill="#3769A4" d="M81.445 40.67c.035-2.183-.204-4.642-.623-7.282l12.191 1.909c.073 1.081.087 2.828.026 4.777l-1.158.06-.544.028-1.08.055c-.23-.167-.456-.335-.675-.498l-.603.564-7.534.387" transform="translate(-62 -6)"/>
                    <path fill="#FFFFFE" d="M77.74 46.89l14.056 2.37c1.088-3.155 1.364-8.656 1.567-14.369l-14.48-2.267c.029 5.393-.2 10.386-1.143 14.266" transform="translate(-62 -6)"/>
                    <path fill="#BE5B52" d="M111.79 33.815c.288.302.531.57.779.865.247.288.487.579.724.874.472.591.924 1.2 1.35 1.83.424.636.84 1.277 1.21 1.96.375.68.727 1.38 1.015 2.133l.111.279.028.07.034.103.067.207c.034.13.064.257.09.382.02.12.042.242.056.357.054.461.058.882.044 1.29-.024.813-.134 1.575-.26 2.324-.27 1.497-.657 2.92-1.16 4.34l-1.58-.362c.118-1.412.226-2.851.265-4.237.024-.692.014-1.38-.032-2.017-.025-.317-.068-.621-.128-.876l-.046-.177-.05-.143-.17-.347c-.575-1.161-1.336-2.304-2.147-3.412-.407-.554-.835-1.099-1.269-1.64-.216-.27-.437-.538-.66-.801l-.66-.767 2.39-2.235" transform="translate(-62 -6)"/>
                    <path fill="#BD5B52" d="M114.492 49.874l-1.094 1.175 2.135 1.259s.738-.982.45-1.986l-1.49-.448M111.978 52.783L114.057 53.512 115.533 52.308 113.398 51.049 111.978 52.783" transform="translate(-62 -6)"/>
                    <path fill="#3769A4" d="M117.967 57.587l-13.731-2.995c.733-4.817 1.711-9.413 2.995-13.731l13.73 2.994c-1.212 4.2-2.17 8.847-2.994 13.732" transform="translate(-62 -6)"/>
                    <path fill="#FFFFFE" d="M116.114 57.991L102.645 53.98 106.656 40.51 120.126 44.521 116.114 57.991" transform="translate(-62 -6)"/>
                    <path fill="#132529" d="M104.01 24.816c-.009.174-.108.311-.222.306-.114-.004-.198-.149-.189-.323.01-.174.109-.311.223-.307.113.005.198.15.189.324" transform="translate(-62 -6)"/>
                    <path fill="#A92D2F" d="M103.918 25.128s-.45.987-.91 1.454c.292.3.822.19.822.19l.088-1.644" transform="translate(-62 -6)"/>
                    <path fill="#132529" d="M104.699 23.876l.065-.038c.035-.045.028-.109-.016-.144-.441-.349-.891-.202-.91-.195-.054.018-.083.076-.066.13.018.053.076.08.129.063.014-.004.367-.115.719.163.023.018.051.025.079.02" transform="translate(-62 -6)"/>
                    <path fill="#BD5B52" d="M109.23 27.313c-.33 1.58-.544 3.767.547 4.82 0 0-.452 1.603-3.386 1.603-3.227 0-1.535-1.406-1.535-1.406 1.347-.417 1.355-1.944 1.064-3.171l3.31-1.846" transform="translate(-62 -6)"/>
                    <path fill="#3769A4" d="M110.644 32.392c2.07.022 4.963 5.273 4.963 5.273L112.4 40.94s-2.103-.979-3.271-3.368c-1.224-2.503-.6-5.202 1.515-5.18" transform="translate(-62 -6)"/>
                    <path fill="#1D5697" d="M112.618 40.716c.076-1.527.21-3.134.434-4.767.02-.153.03-.306.031-.457 0-1.152-.594-2.195-1.514-2.802 1.912 1.115 4.038 4.975 4.038 4.975l-.468.478-2.521 2.573" transform="translate(-62 -6)"/>
                    <path fill="#3769A4" d="M100.823 34.785c-.47 2.332-.808 7.12.351 16.606h11.546c.088-1.537-.654-8.242.332-15.442.266-1.943-1.19-3.7-3.149-3.809l-.126-.006c-1.474-.072-3.61-.118-4.908 0-.542.05-1.075.127-1.55.211-1.253.222-2.243 1.192-2.496 2.44" transform="translate(-62 -6)"/>
                    <path fill="#275E9C" d="M112.72 51.39h-11.546c-.435-3.556-.659-6.452-.745-8.806 1.162-.293 2.48-1.321 2.937-2.587 1.038-1.052 2.333-2.714 2.455-4.55.006-.1.01-.199.01-.297 0-1.528-.797-2.82-2.174-2.82-.215 0-.446.031-.69.099.115-.035.233-.063.353-.084.474-.084 1.007-.162 1.549-.211.573-.052 1.308-.072 2.079-.072.975 0 2.005.032 2.829.072l.126.006c1.804.1 3.181 1.599 3.18 3.352 0 .151-.01.304-.031.457-.404 2.946-.518 5.81-.518 8.27 0 3.2.193 5.718.193 6.85 0 .124-.002.232-.007.322m-12.307-9.32c-.01-.349-.017-.685-.021-1.01l.03-.03c-.018.322-.018.67-.01 1.04" transform="translate(-62 -6)"/>
                    <path fill="#9AA9B8" d="M100.43 42.584c-.007-.175-.013-.346-.017-.512.005.167.01.338.017.512" transform="translate(-62 -6)"/>
                    <path fill="#0E4F92" d="M100.43 42.584c-.007-.174-.013-.345-.017-.512-.01-.372-.009-.72.009-1.042l.252-.264.224-.241 1.156.634s.595-.435 1.312-1.162c-.456 1.266-1.775 2.294-2.936 2.587" transform="translate(-62 -6)"/>
                    <path fill="#BD5B52" d="M109.83 24.683c-.246 2.131-.28 3.39-1.418 4.442-1.71 1.584-4.294.498-4.69-1.655-.356-1.938.105-5.098 2.24-5.863 2.105-.754 4.113.944 3.868 3.076" transform="translate(-62 -6)"/>
                    <path fill="#132529" d="M105.282 25.594c-.662.15-.962-1.413-.287-2.013-.6-.3-1.468-.734-1.758-1.387-.332-.75.57-1.65 1.345-1.613-.25-.5.305-1.838 1.885-1.333 1.616.517 2.328 1.283 2.328 1.283s.522-1.733 1.622-.333c.977 1.244.59 2.307.59 2.307s1.45 1.377 1.075 2.401c-.375 1.025-1.2 1.388-1.2 1.388s.22 2.409-1.545 2.988c-1.764.578-2.874-.613-2.727-1.3-1.14.062-2.303-1.463-1.328-2.388" transform="translate(-62 -6)"/>
                    <path fill="#BD5B52" d="M106.049 25.437c-.073.556-.37 1.066-.707 1.39-.506.49-.975.14-1.015-.494-.035-.57.186-1.512.781-1.763.587-.247 1.024.232.94.867M90.022 40.142l-.844-1.814-2.296 1.42s.757 1.545 2.323 1.374l.817-.98M87.02 37.835l-.512.441c-.333.287-.343.798-.024 1.098l.398.374 2.296-1.42-1.378-.61c-.26-.114-.564-.07-.78.117" transform="translate(-62 -6)"/>
                    <path fill="#132529" d="M105.27 51.39s3.602 16.581 4.98 22.736c1.509 6.74 9.447 27.23 9.447 27.23l3.485-1.888s-3.728-16.076-6.453-24.846c-.988-7.25-4.01-23.231-4.01-23.231h-7.45" transform="translate(-62 -6)"/>
                    <path fill="#051317" d="M110.362 74.606l-.067-.282c-.014-.06-.028-.119-.04-.177l-.005-.02-.238-1.068-.354-1.596c-.777-3.52-1.828-8.329-2.706-12.357.087-.029.18-.042.278-.042.052 0 .105.004.158.011 2.714.362 3.024 9.91 2.974 15.531" transform="translate(-62 -6)"/>
                    <path fill="#132529" d="M101.174 51.39s-.918 16.14-.767 22.723c.156 6.847 2.08 29.266 2.08 29.266h3.656s.598-22.02.847-28.744c.271-7.33 1.773-23.244 1.773-23.244h-7.589" transform="translate(-62 -6)"/>
                    <path fill="#BE5B52" d="M104.287 35.902c-.497.894-1.066 1.74-1.665 2.557-.606.811-1.261 1.578-1.948 2.306-.686.73-1.406 1.42-2.147 2.074-.73.655-1.516 1.28-2.212 1.852l-.247.203-.202.073c-.537.193-1.084.227-1.552.172-.47-.054-.882-.177-1.253-.324-.74-.298-1.337-.697-1.889-1.112-.547-.424-1.04-.877-1.498-1.354-.228-.24-.445-.488-.657-.738-.216-.252-.413-.499-.618-.784l1.183-1.108c.462.343.955.714 1.449 1.033.491.328.988.637 1.483.896.49.262.992.473 1.43.582.219.056.419.077.569.069.152-.01.24-.043.285-.077l-.449.276c.732-.686 1.394-1.296 2.055-1.942.654-.642 1.28-1.3 1.879-1.975.593-.68 1.165-1.37 1.692-2.089.533-.715 1.011-1.46 1.47-2.212l2.842 1.622" transform="translate(-62 -6)"/>
                    <path fill="#3769A4" d="M105.82 35.448c-.205 3.104-3.766 5.71-3.766 5.71l-4.621-2.533s1.702-3.658 3.995-5.385c2.833-2.134 4.55-.155 4.393 2.208" transform="translate(-62 -6)"/>
                    <path fill="#275E9C" d="M102.054 41.159l-4.078-2.236-.543-.298s1.702-3.658 3.995-5.385c.85-.64 1.6-.91 2.23-.91 1.376 0 2.172 1.292 2.173 2.82 0 .098-.004.197-.01.298-.206 3.104-3.767 5.71-3.767 5.71" transform="translate(-62 -6)"/>
                </g>
            </g>
            <circle cx="30" cy="30" r="29.5" stroke="#00488A"/>
        </g>
    </g>
</svg>
